<svg width="20" height="20" viewBox="0 0 20 20" fill="none" xmlns="http://www.w3.org/2000/svg">
<path d="M10.72 0.0302736C9.28949 -0.0738612 7.8533 0.13124 6.50909 0.631634C5.16489 1.13203 3.94418 1.91598 2.92996 2.9302C1.91574 3.94442 1.13178 5.16513 0.63139 6.50934C0.130996 7.85354 -0.0741053 9.28973 0.0300295 10.7203C0.25935 13.2777 1.44558 15.6542 3.35151 17.3748C5.25744 19.0953 7.74259 20.033 10.31 20.0003H14C14.2652 20.0003 14.5196 19.8949 14.7071 19.7074C14.8947 19.5198 15 19.2655 15 19.0003C15 18.7351 14.8947 18.4807 14.7071 18.2932C14.5196 18.1056 14.2652 18.0003 14 18.0003H10.33C8.50704 18.0258 6.72666 17.4485 5.26552 16.3581C3.80438 15.2677 2.74431 13.7252 2.25003 11.9703C1.92073 10.6296 1.94277 9.22663 2.31402 7.89695C2.68527 6.56727 3.39319 5.35581 4.36938 4.37962C5.34557 3.40344 6.55702 2.69552 7.8867 2.32426C9.21639 1.95301 10.6193 1.93097 11.96 2.26027C13.7171 2.74878 15.2628 3.80565 16.3556 5.26571C17.4484 6.72578 18.0267 8.50675 18 10.3303V11.4303C17.9896 11.8315 17.8303 12.2145 17.553 12.5047C17.2757 12.795 16.9004 12.9716 16.5 13.0003C16.0997 12.9716 15.7243 12.795 15.4471 12.5047C15.1698 12.2145 15.0104 11.8315 15 11.4303V10.1803C15.0186 8.9587 14.5992 7.77083 13.8178 6.83168C13.0364 5.89253 11.9446 5.26415 10.74 5.06027C9.89432 4.93261 9.03 5.02381 8.22955 5.32515C7.4291 5.6265 6.71923 6.12795 6.16768 6.78164C5.61613 7.43534 5.2413 8.21947 5.07896 9.05922C4.91662 9.89896 4.97218 10.7663 5.24035 11.5785C5.50852 12.3906 5.98034 13.1205 6.6108 13.6985C7.24125 14.2765 8.00931 14.6832 8.84166 14.88C9.67402 15.0767 10.5429 15.0569 11.3654 14.8224C12.1879 14.5878 12.9366 14.1464 13.54 13.5403C14.027 14.183 14.7106 14.649 15.4868 14.8674C16.263 15.0858 17.0893 15.0447 17.84 14.7503C18.4916 14.4717 19.0452 14.0051 19.43 13.4101C19.8148 12.8151 20.0133 12.1187 20 11.4103V10.3203C20.0348 7.75125 19.0981 5.26387 17.3774 3.35591C15.6567 1.44795 13.279 0.26017 10.72 0.0302736ZM10 13.0003C9.40669 13.0003 8.82667 12.8243 8.33332 12.4947C7.83997 12.165 7.45545 11.6965 7.22839 11.1483C7.00133 10.6001 6.94192 9.99695 7.05767 9.415C7.17343 8.83306 7.45915 8.29851 7.87871 7.87895C8.29827 7.4594 8.83282 7.17367 9.41476 7.05792C9.9967 6.94216 10.5999 7.00157 11.1481 7.22863C11.6963 7.4557 12.1648 7.84022 12.4944 8.33356C12.8241 8.82691 13 9.40693 13 10.0003C13 10.7959 12.684 11.559 12.1214 12.1216C11.5587 12.6842 10.7957 13.0003 10 13.0003Z" fill="#009DCC"/>
</svg>
