<svg xmlns="http://www.w3.org/2000/svg" id="prefix__add_location-24px" width="24" height="24" viewBox="0 0 24 24">
    <path id="prefix__Rectangle_537" d="M0 0H24V24H0z" data-name="Rectangle 537" style="fill:none"/>
    <g id="prefix__Group_1259" data-name="Group 1259">
        <path id="prefix__Path_2380" d="M13 7a1 1 0 0 0-2 0v2H9a1 1 0 0 0 0 2h2v2a1 1 0 0 0 2 0v-2h2a1 1 0 0 0 0-2h-2zm-1-5a7.955 7.955 0 0 1 8 8.2q0 4.77-7.34 11.23a1.017 1.017 0 0 1-1.33 0Q4.01 14.965 4 10.2A7.955 7.955 0 0 1 12 2z" data-name="Path 2380" style="fill:#fff"/>
    </g>
</svg>
