<svg
  xmlns="http://www.w3.org/2000/svg"
  id="prefix__alternate_email-24px"
  width="24"
  height="24"
  viewBox="0 0 24 24"
>
  <path
    id="prefix__Path_2273"
    d="M12.72 2.03A9.991 9.991 0 0 0 2.03 12.72 10.191 10.191 0 0 0 12.31 22H16a1 1 0 0 0 0-2h-3.67a8.274 8.274 0 0 1-8.08-6.03 8.027 8.027 0 0 1 9.71-9.71A8.251 8.251 0 0 1 20 12.33v1.1A1.616 1.616 0 0 1 18.5 15a1.616 1.616 0 0 1-1.5-1.57v-1.25a5.114 5.114 0 0 0-4.26-5.12 5.005 5.005 0 1 0 2.8 8.48 3.7 3.7 0 0 0 4.3 1.21A3.56 3.56 0 0 0 22 13.41v-1.09a10.193 10.193 0 0 0-9.28-10.29zM12 15a3 3 0 1 1 3-3 3 3 0 0 1-3 3z"
    data-name="Path 2273"
    style="fill: #066eb0"
  />
</svg>