<svg width="30" height="34" viewBox="0 0 30 34" fill="none" xmlns="http://www.w3.org/2000/svg">
<path d="M3.33333 34.0013C2.41667 34.0013 1.63167 33.6752 0.978333 33.023C0.326111 32.3696 0 31.5846 0 30.668V7.33464C0 6.41797 0.326111 5.63297 0.978333 4.97964C1.63167 4.32741 2.41667 4.0013 3.33333 4.0013H10.3333C10.6944 3.0013 11.2989 2.19575 12.1467 1.58464C12.9933 0.973524 13.9444 0.667969 15 0.667969C16.0556 0.667969 17.0072 0.973524 17.855 1.58464C18.7017 2.19575 19.3056 3.0013 19.6667 4.0013H26.6667C27.5833 4.0013 28.3683 4.32741 29.0217 4.97964C29.6739 5.63297 30 6.41797 30 7.33464V30.668C30 31.5846 29.6739 32.3696 29.0217 33.023C28.3683 33.6752 27.5833 34.0013 26.6667 34.0013H3.33333ZM6.66667 27.3346H18.3333V24.0013H6.66667V27.3346ZM6.66667 20.668H23.3333V17.3346H6.66667V20.668ZM6.66667 14.0013H23.3333V10.668H6.66667V14.0013ZM15 6.08464C15.3611 6.08464 15.66 5.9663 15.8967 5.72964C16.1322 5.49408 16.25 5.19575 16.25 4.83464C16.25 4.47352 16.1322 4.17464 15.8967 3.93797C15.66 3.70241 15.3611 3.58464 15 3.58464C14.6389 3.58464 14.3406 3.70241 14.105 3.93797C13.8683 4.17464 13.75 4.47352 13.75 4.83464C13.75 5.19575 13.8683 5.49408 14.105 5.72964C14.3406 5.9663 14.6389 6.08464 15 6.08464Z" fill="#459ad4"/>
</svg>
