<svg xmlns="http://www.w3.org/2000/svg" id="prefix__check_circle_outline-24px" width="28" height="28" viewBox="0 0 28 28">
    <path id="prefix__Path_2293" fill="none" d="M0 0h28v28H0z" data-name="Path 2293"/>
    <path id="prefix__Path_2294" fill="#5ba802" d="M14.216 2a12.216 12.216 0 1 0 12.217 12.216A12.221 12.221 0 0 0 14.216 2zm0 21.99a9.773 9.773 0 1 1 9.773-9.773 9.786 9.786 0 0 1-9.773 9.773zm4.74-14.305l-7.183 7.183-2.3-2.3a1.218 1.218 0 0 0-1.723 1.723l3.164 3.164a1.217 1.217 0 0 0 1.723 0l8.051-8.051a1.217 1.217 0 0 0 0-1.723 1.231 1.231 0 0 0-1.735 0z" data-name="Path 2294" transform="translate(-.216 -.216)"/>
</svg>
