<svg width="8" height="12" viewBox="0 0 8 12" fill="none" xmlns="http://www.w3.org/2000/svg">
<path d="M0.710714 0.712668C0.898077 0.526417 1.15153 0.421875 1.41571 0.421875C1.6799 0.421875 1.93335 0.526417 2.12071 0.712668L6.71071 5.30267C6.89697 5.49003 7.00151 5.74348 7.00151 6.00767C7.00151 6.27185 6.89697 6.52531 6.71071 6.71267L2.12071 11.3027C1.92941 11.4665 1.68334 11.5521 1.43166 11.5424C1.17998 11.5327 0.941246 11.4283 0.763151 11.2502C0.585057 11.0721 0.480724 10.8334 0.471003 10.5817C0.461281 10.33 0.546888 10.084 0.710714 9.89267L4.59071 6.00267L0.710714 2.12267C0.524463 1.93531 0.419922 1.68185 0.419922 1.41767C0.419922 1.15348 0.524463 0.90003 0.710714 0.712668Z" fill="white"/>
</svg>
