<svg xmlns="http://www.w3.org/2000/svg" width="24" height="24">
    <g data-name="Group 2204">
        <path data-name="Path 3236" d="M0 0h24v24H0z" style="fill:none"/>
    </g>
    <g data-name="Group 2205">
        <path data-name="Path 3237" d="m19.41 7.41-4.83-4.83A2 2 0 0 0 13.17 2H6a2 2 0 0 0-1.99 2L4 20a2 2 0 0 0 1.99 2H18a2.006 2.006 0 0 0 2-2V8.83a2.006 2.006 0 0 0-.59-1.42zm-9.18 9.88-2.12-2.12a1 1 0 0 1 0-1.41 1 1 0 0 1 1.41 0l1.41 1.41 3.54-3.54a1 1 0 0 1 1.41 0 1 1 0 0 1 0 1.41l-4.24 4.24a.987.987 0 0 1-1.41.01zM14 9a1 1 0 0 1-1-1V3.5L18.5 9z" style="fill:#707070"/>
    </g>
</svg>
