<svg width="116" height="42" viewBox="0 0 116 42" fill="none" xmlns="http://www.w3.org/2000/svg">
<g clip-path="url(#clip0_7076_21085)">
<path d="M79.7839 20.6776C78.6697 21.1805 77.3918 21.43 75.9422 21.43C74.6244 21.43 73.4024 21.2162 72.2843 20.7845C71.1661 20.3528 70.1957 19.743 69.3731 18.9549C68.5545 18.1629 67.9075 17.2164 67.4443 16.1154C66.9771 15.0105 66.7415 13.7987 66.7415 12.472C66.7415 11.1454 66.9771 9.88602 67.4523 8.78113C67.9275 7.68019 68.5824 6.74162 69.421 5.96542C70.2596 5.18922 71.238 4.59519 72.3681 4.17937C73.4943 3.76751 74.7123 3.55762 76.0181 3.55762C77.2241 3.55762 78.4141 3.76751 79.5842 4.19125C80.7503 4.61499 81.6967 5.23278 82.4195 6.04859L79.6161 8.82865C79.2328 8.30194 78.7216 7.90988 78.0947 7.65643C77.4677 7.39902 76.8208 7.27229 76.1619 7.27229C75.4351 7.27229 74.7682 7.40298 74.1652 7.66831C73.5622 7.92968 73.043 8.29402 72.6077 8.75737C72.1725 9.22071 71.833 9.76722 71.5934 10.4009C71.3498 11.0345 71.23 11.7236 71.23 12.472C71.23 13.2205 71.3498 13.9413 71.5934 14.5789C71.833 15.2165 72.1685 15.7669 72.5958 16.2184C73.0191 16.6738 73.5302 17.0302 74.1292 17.2876C74.7242 17.5411 75.3752 17.6678 76.086 17.6678C76.9046 17.6678 77.6234 17.5094 78.2344 17.1886C78.8454 16.8679 79.3366 16.456 79.708 15.9412L82.5832 18.6262C81.8245 19.4895 80.89 20.1707 79.7799 20.6776H79.7839Z" fill="#004996"/>
<path d="M98.0496 9.23621C98.0496 10.2263 97.8659 11.0579 97.4906 11.7391C97.1192 12.4202 96.62 12.9667 95.993 13.3786C95.3661 13.7944 94.6433 14.0993 93.8206 14.2894C92.998 14.4795 92.1474 14.5746 91.2609 14.5746H89.2083V20.9703H85.0791V4.0127H91.3567C92.2952 4.0127 93.1657 4.10378 93.9804 4.28991C94.795 4.47208 95.5058 4.76909 96.1088 5.177C96.7118 5.5849 97.1871 6.11952 97.5305 6.78088C97.8779 7.44619 98.0536 8.262 98.0536 9.23621H98.0496ZM93.9165 9.25997C93.9165 8.85999 93.8366 8.53525 93.6729 8.27784C93.5131 8.02042 93.2975 7.82241 93.022 7.67984C92.7464 7.53728 92.4349 7.44223 92.0915 7.39075C91.7441 7.34323 91.3847 7.31947 91.0133 7.31947H89.2003V11.3193H90.9414C91.3288 11.3193 91.7001 11.2876 92.0516 11.2242C92.407 11.1609 92.7264 11.05 93.01 10.8876C93.2895 10.7292 93.5131 10.5154 93.6689 10.254C93.8326 9.98864 93.9125 9.65995 93.9125 9.25997H93.9165Z" fill="#004996"/>
<path d="M111.408 20.9782L110.078 17.6476H103.457L102.203 20.9782H97.7063L104.882 4.0166H108.892L115.996 20.9782H111.404H111.408ZM106.819 8.54312L104.647 14.3646H108.948L106.819 8.54312Z" fill="#004996"/>
<path d="M67.4324 25.6436H72.1526C72.6677 25.6436 73.1868 25.703 73.702 25.8178C74.2171 25.9326 74.6804 26.1267 75.0877 26.392C75.495 26.6574 75.8225 27.0098 76.0741 27.4454C76.3257 27.8811 76.4534 28.4236 76.4534 29.0771C76.4534 29.8335 76.2298 30.4631 75.7945 30.9779C75.3553 31.4888 74.7762 31.8413 74.0534 32.0314V32.071C74.4927 32.1224 74.896 32.2373 75.2714 32.4076C75.6468 32.5818 75.9702 32.8076 76.2418 33.0927C76.5093 33.3739 76.721 33.7065 76.8688 34.0907C77.0165 34.4748 77.0924 34.9025 77.0924 35.3777C77.0924 36.0312 76.9566 36.5975 76.6851 37.0846C76.4135 37.5717 76.0461 37.9717 75.5829 38.2845C75.1197 38.5974 74.5726 38.835 73.9456 38.9934C73.3226 39.1558 72.6557 39.235 71.9449 39.235H67.4364V25.6436H67.4324ZM69.3452 31.3819H71.8451C72.2045 31.3819 72.5479 31.3383 72.8794 31.2552C73.2068 31.172 73.4943 31.0453 73.7419 30.871C73.9855 30.6968 74.1772 30.4829 74.325 30.2216C74.4687 29.9602 74.5366 29.6434 74.5366 29.2711C74.5366 28.5424 74.2691 28.0197 73.726 27.7068C73.1829 27.394 72.4521 27.2356 71.5376 27.2356H69.3492V31.3819H69.3452ZM69.3452 37.6192H71.7492C72.1486 37.6192 72.5519 37.5836 72.9552 37.5123C73.3626 37.445 73.73 37.3182 74.0614 37.14C74.3889 36.9618 74.6524 36.7202 74.8521 36.4193C75.0518 36.1183 75.1516 35.7381 75.1516 35.2787C75.1516 34.4748 74.8761 33.8927 74.321 33.5362C73.7659 33.1759 72.9632 32.9977 71.9249 32.9977H69.3492V37.6232L69.3452 37.6192Z" fill="#004996"/>
<path d="M87.3992 33.3381C87.3992 32.6609 87.1915 32.1579 86.7802 31.8332C86.3649 31.5085 85.8218 31.3461 85.1349 31.3461C84.6198 31.3461 84.1326 31.4451 83.6733 31.6431C83.2141 31.8411 82.8307 32.0946 82.5232 32.3995L81.5568 31.2471C82.0081 30.8233 82.5592 30.4907 83.2101 30.2491C83.865 30.0075 84.5639 29.8848 85.3106 29.8848C85.9655 29.8848 86.5406 29.9798 87.0238 30.1659C87.507 30.3521 87.9023 30.6055 88.2138 30.9223C88.5253 31.2431 88.7569 31.6193 88.9127 32.055C89.0644 32.4906 89.1443 32.9539 89.1443 33.4569V37.429C89.1443 37.7339 89.1563 38.0586 89.1762 38.3992C89.1962 38.7398 89.2281 39.017 89.2801 39.2348H87.6348C87.531 38.7992 87.479 38.3636 87.479 37.9279H87.4231C87.0877 38.415 86.6644 38.7913 86.1572 39.0606C85.6461 39.3259 85.0431 39.4645 84.3482 39.4645C83.9848 39.4645 83.6094 39.417 83.2141 39.318C82.8227 39.2229 82.4633 39.0645 82.1399 38.8467C81.8204 38.6289 81.5489 38.3398 81.3412 37.9834C81.1296 37.627 81.0217 37.1834 81.0217 36.6607C81.0217 35.9716 81.2054 35.4251 81.5848 35.0212C81.9562 34.6172 82.4474 34.3123 83.0544 34.0984C83.6574 33.8885 84.3442 33.7499 85.107 33.6866C85.8657 33.6232 86.6364 33.5915 87.4072 33.5915V33.342L87.3992 33.3381ZM86.9559 34.8905C86.5047 34.8905 86.0374 34.9103 85.5542 34.9499C85.071 34.9895 84.6318 35.0647 84.2404 35.1796C83.8451 35.2944 83.5216 35.4687 83.262 35.6983C83.0025 35.928 82.8747 36.2369 82.8747 36.6171C82.8747 36.8864 82.9306 37.1121 83.0384 37.2904C83.1502 37.4686 83.294 37.619 83.4737 37.7299C83.6534 37.8448 83.853 37.9279 84.0727 37.9715C84.2883 38.0151 84.5159 38.0388 84.7476 38.0388C85.5982 38.0388 86.2531 37.7854 86.7123 37.2785C87.1676 36.7755 87.3952 36.1379 87.3952 35.3697V34.8905H86.9519H86.9559Z" fill="#004996"/>
<path d="M95.7574 30.1343C95.7813 30.364 95.8013 30.6214 95.8173 30.9105C95.8293 31.1996 95.8372 31.4372 95.8372 31.6312H95.8971C96.0129 31.3896 96.1687 31.1639 96.3684 30.9501C96.568 30.7402 96.7996 30.554 97.0552 30.3956C97.3108 30.2372 97.5943 30.1105 97.9058 30.0234C98.2173 29.9323 98.5368 29.8848 98.8762 29.8848C99.4672 29.8848 99.9784 29.9838 100.402 30.1857C100.829 30.3838 101.184 30.6491 101.468 30.9817C101.751 31.3144 101.959 31.7025 102.095 32.15C102.231 32.5975 102.299 33.0767 102.299 33.5876V39.2309H100.482V34.1855C100.482 33.8133 100.454 33.4608 100.394 33.1321C100.338 32.7995 100.23 32.5064 100.074 32.249C99.9185 31.9916 99.7068 31.7896 99.4353 31.6352C99.1637 31.4807 98.8163 31.4055 98.389 31.4055C97.6662 31.4055 97.0752 31.6787 96.616 32.2213C96.1567 32.7678 95.9291 33.4925 95.9291 34.3994V39.2348H94.1121V32.0946C94.1121 31.853 94.1041 31.5401 94.0921 31.156C94.0762 30.7719 94.0602 30.4313 94.0322 30.1382H95.7534L95.7574 30.1343Z" fill="#004996"/>
<path d="M109.167 34.0865H109.223L113.073 30.1343H115.513L111.216 34.2608L115.88 39.2308H113.364L109.223 34.5103H109.167V39.2308H107.346V24.7246H109.167V34.0865Z" fill="#004996"/>
<path d="M54.6135 0.844727H51.2671V41.1557H54.6135V0.844727Z" fill="#FFCA05"/>
<path d="M4.88791 7.27637L0 11.9019C3.019 15.3987 4.43266 18.8481 4.19705 22.2697C3.93748 25.9567 1.86891 28.5862 0.826632 29.6911C0.794685 29.9604 0.622969 30.1901 0.343432 30.2772C0.343432 30.2772 0.327458 30.2812 0.319471 30.2852C0.299504 30.2931 0.179703 30.3168 0.159736 30.3208C0.151749 30.3287 0.143762 30.3327 0.135775 30.3366C0.159736 30.3525 0.299504 30.4158 0.315478 30.4317C0.70683 30.7525 3.3824 33.4256 4.90388 34.9582L4.96778 34.982C4.96778 34.982 5.00771 34.974 5.0157 34.9622C12.671 27.2912 12.6151 14.876 4.8959 7.28033L4.88791 7.27637Z" fill="#FFCA05"/>
<path d="M20.4343 30.8545C15.167 30.8743 10.2232 32.9337 6.51733 36.6483L11.1696 41.4996C14.6918 38.5017 18.178 37.1037 21.6363 37.3295C25.3342 37.5869 27.9898 39.6422 29.1 40.6719C29.3675 40.7075 29.6031 40.8778 29.691 41.159C29.691 41.159 29.695 41.1709 29.695 41.1788C29.707 41.2184 29.7309 41.3095 29.7349 41.3332C29.7389 41.3412 29.7429 41.3491 29.7469 41.3531C29.7708 41.3253 29.8467 41.2184 29.8707 41.1946C30.1622 40.8184 32.698 38.3156 34.4032 36.6483C34.4231 36.6246 34.4391 36.5929 34.4391 36.581C30.6933 32.8663 25.7615 30.8506 20.5222 30.8506H20.4303L20.4343 30.8545Z" fill="#FFCA05"/>
<path d="M20.5461 10.9866C25.8174 10.9589 30.7612 8.90355 34.463 5.18888L29.8068 0.5C26.3045 3.47807 22.8503 4.86019 19.4 4.61465C15.2788 4.31764 12.2718 1.6841 11.4012 0.646528L11.3812 0.670289C11.2734 0.571284 11.2175 0.563363 11.2175 0.563363C10.3629 1.47421 7.44377 4.3414 6.56522 5.1968C6.54925 5.21264 6.54126 5.2364 6.54126 5.25225C10.295 8.97484 15.2309 10.9866 20.4662 10.9866H20.5501H20.5461Z" fill="#FFCA05"/>
<path d="M37.1784 20.0472C37.5298 15.4375 40.8364 12.3842 41.2117 12.0555C41.2038 12.0714 41.2357 11.9882 41.2637 11.9248C41.2397 11.909 41.2157 11.8892 41.1918 11.8734C40.7685 11.5209 37.0187 7.76266 36.5914 7.33496C32.7617 11.0417 30.7331 15.9603 30.757 21.1878C30.781 26.4192 32.8536 31.3259 36.5954 35.0089L41.3236 30.3834V30.3754C41.3635 30.3398 41.3595 30.2923 41.3315 30.2645C38.3165 26.8865 36.9149 23.4451 37.1744 20.0433L37.1784 20.0472Z" fill="#FFCA05"/>
<path d="M27.2907 20.9976C27.2907 24.6172 24.3316 27.5557 20.6817 27.5557C17.0317 27.5557 14.0686 24.6172 14.0686 20.9976C14.0686 17.3779 17.0277 14.4395 20.6817 14.4395C24.3356 14.4395 27.2907 17.374 27.2907 20.9976Z" fill="#FFCA05"/>
</g>
<defs>
<clipPath id="clip0_7076_21085">
<rect width="116" height="41" fill="white" transform="translate(0 0.5)"/>
</clipPath>
</defs>
</svg>
