<svg width="122" height="44" viewBox="0 0 122 44" fill="none" xmlns="http://www.w3.org/2000/svg">
<rect width="122" height="44" fill="#1E1E1E"/>
<g id="1. Desktop - Accueil" clip-path="url(#clip0_6996_21762)">
<rect width="1920" height="1743" transform="translate(-310 -54)" fill="#F8F7F2"/>
<g id="nav_bar" clip-path="url(#clip1_6996_21762)" filter="url(#filter0_d_6996_21762)">
<rect width="1920" height="165" transform="translate(-310 -54)" fill="#151F50"/>
<g id="Frame 1668" clip-path="url(#clip2_6996_21762)">
<g id="Frame 1779">
<g id="Frame 1793">
<rect x="-8" y="-4" width="138" height="52" rx="5" fill="#151F50"/>
<g id="svg2" clip-path="url(#clip3_6996_21762)">
<g id="Group">
<g id="Group_2">
<path id="Vector" d="M83.9109 21.6539C82.7391 22.1936 81.3951 22.4614 79.8705 22.4614C78.4845 22.4614 77.1994 22.2319 76.0234 21.7686C74.8474 21.3054 73.8268 20.6509 72.9616 19.8052C72.1006 18.9552 71.4202 17.9394 70.933 16.7579C70.4416 15.5722 70.1938 14.2717 70.1938 12.8479C70.1938 11.4242 70.4416 10.0727 70.9414 8.88697C71.4412 7.70547 72.13 6.69823 73.012 5.86524C73.894 5.03224 74.923 4.39474 76.1116 3.9485C77.296 3.5065 78.5769 3.28125 79.9503 3.28125C81.2187 3.28125 82.4703 3.5065 83.7009 3.96125C84.9272 4.41599 85.9226 5.07899 86.6828 5.95448L83.7345 8.93797C83.3313 8.37272 82.7937 7.95197 82.1343 7.67998C81.4749 7.40373 80.7945 7.26773 80.1015 7.26773C79.3371 7.26773 78.6357 7.40798 78.0015 7.69273C77.3674 7.97322 76.8214 8.36422 76.3636 8.86147C75.9058 9.35872 75.5488 9.94521 75.2968 10.6252C75.0406 11.3052 74.9146 12.0447 74.9146 12.8479C74.9146 13.6512 75.0406 14.4247 75.2968 15.1089C75.5488 15.7932 75.9016 16.3839 76.351 16.8684C76.7962 17.3572 77.3338 17.7397 77.9637 18.0159C78.5895 18.2879 79.2741 18.4239 80.0217 18.4239C80.8827 18.4239 81.6387 18.2539 82.2813 17.9097C82.9239 17.5654 83.4405 17.1234 83.8311 16.5709L86.855 19.4524C86.057 20.3789 85.0742 21.1099 83.9067 21.6539H83.9109Z" fill="white"/>
<path id="Vector_2" d="M103.121 9.37525C103.121 10.4377 102.928 11.3302 102.533 12.0612C102.143 12.7922 101.618 13.3787 100.958 13.8207C100.299 14.267 99.5388 14.5942 98.6737 14.7982C97.8085 15.0022 96.9139 15.1042 95.9815 15.1042H93.8227V21.9679H89.48V3.76953H96.0823C97.0693 3.76953 97.9849 3.86728 98.8417 4.06703C99.6984 4.26253 100.446 4.58128 101.08 5.01902C101.714 5.45677 102.214 6.03052 102.575 6.74026C102.941 7.45426 103.126 8.32976 103.126 9.37525H103.121ZM98.7745 9.40075C98.7745 8.9715 98.6905 8.623 98.5183 8.34676C98.3503 8.07051 98.1235 7.85801 97.8337 7.70501C97.5439 7.55201 97.2163 7.45001 96.8551 7.39476C96.4897 7.34376 96.1117 7.31826 95.7211 7.31826H93.8143V11.6107H95.6455C96.0529 11.6107 96.4435 11.5767 96.8131 11.5087C97.1869 11.4407 97.5229 11.3217 97.8211 11.1475C98.1151 10.9775 98.3503 10.748 98.5141 10.4675C98.6863 10.1827 98.7703 9.83 98.7703 9.40075H98.7745Z" fill="white"/>
<path id="Vector_3" d="M117.17 21.9771L115.772 18.4028H108.808L107.489 21.9771H102.76L110.308 3.77441H114.524L121.996 21.9771H117.166H117.17ZM112.345 8.63214L110.06 14.8796H114.583L112.345 8.63214Z" fill="white"/>
<path id="Vector_4" d="M70.9204 26.9834H75.8847C76.4265 26.9834 76.9725 27.0471 77.5143 27.1704C78.0561 27.2936 78.5433 27.5019 78.9717 27.7866C79.4001 28.0714 79.7445 28.4496 80.0091 28.9171C80.2737 29.3846 80.4081 29.9669 80.4081 30.6681C80.4081 31.4799 80.1729 32.1556 79.7151 32.7081C79.2531 33.2564 78.6441 33.6346 77.8839 33.8386V33.8811C78.3459 33.9364 78.7701 34.0596 79.1649 34.2424C79.5597 34.4294 79.8999 34.6716 80.1855 34.9776C80.4669 35.2794 80.6895 35.6363 80.8449 36.0486C81.0003 36.4608 81.0801 36.9198 81.0801 37.4298C81.0801 38.1311 80.9373 38.7388 80.6517 39.2616C80.3661 39.7843 79.9797 40.2136 79.4925 40.5493C79.0053 40.8851 78.4299 41.1401 77.7705 41.3101C77.1153 41.4843 76.4139 41.5693 75.6663 41.5693H70.9246V26.9834H70.9204ZM72.9322 33.1416H75.5614C75.9393 33.1416 76.3005 33.0949 76.6491 33.0056C76.9935 32.9164 77.2959 32.7804 77.5563 32.5934C77.8125 32.4064 78.0141 32.1769 78.1695 31.8964C78.3207 31.6159 78.3921 31.2759 78.3921 30.8764C78.3921 30.0944 78.1107 29.5334 77.5395 29.1976C76.9683 28.8619 76.1997 28.6919 75.238 28.6919H72.9364V33.1416H72.9322ZM72.9322 39.8353H75.4605C75.8805 39.8353 76.3047 39.7971 76.7289 39.7206C77.1573 39.6483 77.5437 39.5123 77.8923 39.3211C78.2367 39.1298 78.5139 38.8706 78.7239 38.5476C78.9339 38.2246 79.0389 37.8166 79.0389 37.3236C79.0389 36.4608 78.7491 35.8361 78.1653 35.4536C77.5815 35.0669 76.7373 34.8756 75.6453 34.8756H72.9364V39.8396L72.9322 39.8353Z" fill="white"/>
<path id="Vector_5" d="M91.9202 35.2411C91.9202 34.5144 91.7018 33.9746 91.2692 33.6261C90.8324 33.2776 90.2612 33.1034 89.5388 33.1034C88.997 33.1034 88.4846 33.2096 88.0017 33.4221C87.5187 33.6346 87.1155 33.9066 86.7921 34.2339L85.7757 32.9971C86.2503 32.5424 86.8299 32.1854 87.5145 31.9262C88.2032 31.6669 88.9382 31.5352 89.7236 31.5352C90.4124 31.5352 91.0172 31.6372 91.5254 31.8369C92.0336 32.0367 92.4494 32.3087 92.777 32.6487C93.1046 32.9929 93.3482 33.3966 93.512 33.8641C93.6716 34.3316 93.7556 34.8289 93.7556 35.3686V39.6314C93.7556 39.9586 93.7682 40.3071 93.7892 40.6726C93.8102 41.0381 93.8438 41.3356 93.8984 41.5694H92.168C92.0588 41.1019 92.0042 40.6344 92.0042 40.1669H91.9454C91.5926 40.6896 91.1474 41.0934 90.614 41.3824C90.0764 41.6671 89.4422 41.8158 88.7114 41.8158C88.3293 41.8158 87.9345 41.7648 87.5187 41.6586C87.1071 41.5566 86.7291 41.3866 86.3889 41.1529C86.0529 40.9191 85.7673 40.6089 85.5489 40.2264C85.3263 39.8439 85.2129 39.3679 85.2129 38.8069C85.2129 38.0674 85.4061 37.4809 85.8051 37.0474C86.1957 36.6139 86.7123 36.2866 87.3507 36.0571C87.9849 35.8319 88.7072 35.6831 89.5094 35.6151C90.3074 35.5471 91.118 35.5131 91.9286 35.5131V35.2454L91.9202 35.2411ZM91.454 36.9071C90.9794 36.9071 90.488 36.9284 89.9798 36.9709C89.4716 37.0134 89.0096 37.0941 88.598 37.2174C88.1823 37.3406 87.8421 37.5276 87.5691 37.7741C87.2961 38.0206 87.1617 38.3521 87.1617 38.7601C87.1617 39.0491 87.2205 39.2914 87.3339 39.4826C87.4515 39.6739 87.6027 39.8354 87.7917 39.9544C87.9807 40.0776 88.1907 40.1669 88.4216 40.2136C88.6484 40.2604 88.8878 40.2859 89.1314 40.2859C90.026 40.2859 90.7148 40.0139 91.1978 39.4699C91.6766 38.9301 91.916 38.2459 91.916 37.4214V36.9071H91.4498H91.454Z" fill="white"/>
<path id="Vector_6" d="M100.711 31.8029C100.736 32.0494 100.757 32.3257 100.774 32.6359C100.786 32.9461 100.795 33.2011 100.795 33.4094H100.858C100.98 33.1501 101.143 32.9079 101.353 32.6784C101.563 32.4532 101.807 32.2534 102.076 32.0834C102.345 31.9134 102.643 31.7774 102.97 31.6839C103.298 31.5862 103.634 31.5352 103.991 31.5352C104.613 31.5352 105.15 31.6414 105.595 31.8582C106.045 32.0707 106.419 32.3554 106.717 32.7124C107.015 33.0694 107.233 33.4859 107.376 33.9661C107.519 34.4464 107.59 34.9606 107.59 35.5089V41.5651H105.679V36.1506C105.679 35.7511 105.65 35.3729 105.587 35.0201C105.528 34.6631 105.415 34.3486 105.251 34.0724C105.087 33.7961 104.865 33.5794 104.579 33.4136C104.293 33.2479 103.928 33.1671 103.479 33.1671C102.718 33.1671 102.097 33.4604 101.614 34.0426C101.131 34.6291 100.891 35.4069 100.891 36.3801V41.5693H98.9805V33.9066C98.9805 33.6474 98.9721 33.3116 98.9595 32.8994C98.9427 32.4872 98.9259 32.1217 98.8965 31.8072H100.707L100.711 31.8029Z" fill="white"/>
<path id="Vector_7" d="M114.814 36.044H114.873L118.922 31.8025H121.488L116.969 36.231L121.874 41.5647H119.228L114.873 36.4988H114.814V41.5647H112.899V25.9971H114.814V36.044Z" fill="white"/>
</g>
<path id="Vector_8" d="M57.4385 0.370117H53.9189V43.6306H57.4385V0.370117Z" fill="#FFCA05"/>
</g>
<g id="Group_3">
<g id="Group_4">
<path id="Vector_9" d="M5.14073 7.27148L0 12.2355C3.17516 15.9882 4.66194 19.6899 4.41414 23.3619C4.14115 27.3186 1.96557 30.1406 0.869389 31.3263C0.835789 31.6153 0.655191 31.8618 0.361195 31.9553C0.361195 31.9553 0.344395 31.9596 0.335996 31.9638C0.314996 31.9723 0.188998 31.9978 0.167998 32.0021C0.159598 32.0106 0.151198 32.0148 0.142798 32.0191C0.167998 32.0361 0.314996 32.1041 0.331796 32.1211C0.74339 32.4653 3.55735 35.3341 5.15753 36.9788L5.22473 37.0043C5.22473 37.0043 5.26673 36.9958 5.27513 36.9831C13.3264 28.7509 13.2676 15.4272 5.14913 7.27573L5.14073 7.27148Z" fill="#FFCA05"/>
<path id="Vector_10" d="M21.4913 32.5765C15.9516 32.5978 10.752 34.8078 6.85449 38.7942L11.7474 44.0005C15.4518 40.7832 19.1183 39.283 22.7555 39.5252C26.6446 39.8015 29.4376 42.0072 30.6052 43.1122C30.8866 43.1505 31.1344 43.3332 31.2268 43.635C31.2268 43.635 31.231 43.6477 31.231 43.6562C31.2436 43.6987 31.2688 43.7965 31.273 43.822C31.2772 43.8305 31.2814 43.839 31.2856 43.8432C31.3108 43.8135 31.3906 43.6987 31.4158 43.6732C31.7224 43.2695 34.3893 40.5835 36.1827 38.7942C36.2037 38.7687 36.2205 38.7347 36.2205 38.722C32.281 34.7355 27.094 32.5723 21.5837 32.5723H21.4871L21.4913 32.5765Z" fill="#FFCA05"/>
<path id="Vector_11" d="M21.6086 11.2539C27.1525 11.2242 32.3521 9.01845 36.2454 5.03197L31.3483 0C27.6649 3.19598 24.032 4.67922 20.4032 4.41573C16.0689 4.09698 12.9063 1.27074 11.9907 0.157249L11.9697 0.182749C11.8563 0.0764996 11.7975 0.0679996 11.7975 0.0679996C10.8987 1.04549 7.82858 4.12248 6.90459 5.04047C6.88779 5.05747 6.87939 5.08297 6.87939 5.09997C10.8273 9.09495 16.0185 11.2539 21.5246 11.2539H21.6128H21.6086Z" fill="#FFCA05"/>
<path id="Vector_12" d="M39.1014 20.9784C39.471 16.0314 42.9485 12.7547 43.3433 12.4019C43.3349 12.4189 43.3685 12.3297 43.3979 12.2617C43.3727 12.2447 43.3475 12.2234 43.3223 12.2064C42.8771 11.8282 38.9334 7.79493 38.484 7.33594C34.4562 11.3139 32.3227 16.5924 32.3479 22.2024C32.3731 27.8166 34.5528 33.0823 38.4882 37.0348L43.4609 32.0708V32.0623C43.5029 32.024 43.4987 31.973 43.4693 31.9433C40.2984 28.3181 38.8242 24.6248 39.0972 20.9741L39.1014 20.9784Z" fill="#FFCA05"/>
</g>
<path id="Vector_13" d="M28.7024 21.9979C28.7024 25.8824 25.5902 29.0359 21.7515 29.0359C17.9127 29.0359 14.7964 25.8824 14.7964 21.9979C14.7964 18.1134 17.9085 14.96 21.7515 14.96C25.5944 14.96 28.7024 18.1092 28.7024 21.9979Z" fill="#FFCA05"/>
</g>
</g>
</g>
</g>
</g>
</g>
</g>
<defs>
<filter id="filter0_d_6996_21762" x="-316" y="-57" width="1932" height="177" filterUnits="userSpaceOnUse" color-interpolation-filters="sRGB">
<feFlood flood-opacity="0" result="BackgroundImageFix"/>
<feColorMatrix in="SourceAlpha" type="matrix" values="0 0 0 0 0 0 0 0 0 0 0 0 0 0 0 0 0 0 127 0" result="hardAlpha"/>
<feOffset dy="3"/>
<feGaussianBlur stdDeviation="3"/>
<feComposite in2="hardAlpha" operator="out"/>
<feColorMatrix type="matrix" values="0 0 0 0 0.0980392 0 0 0 0 0.113725 0 0 0 0 0.203922 0 0 0 0.4 0"/>
<feBlend mode="normal" in2="BackgroundImageFix" result="effect1_dropShadow_6996_21762"/>
<feBlend mode="normal" in="SourceGraphic" in2="effect1_dropShadow_6996_21762" result="shape"/>
</filter>
<clipPath id="clip0_6996_21762">
<rect width="1920" height="1743" fill="white" transform="translate(-310 -54)"/>
</clipPath>
<clipPath id="clip1_6996_21762">
<rect width="1920" height="165" fill="white" transform="translate(-310 -54)"/>
</clipPath>
<clipPath id="clip2_6996_21762">
<rect width="1316" height="56" fill="white" transform="translate(-8 -6)"/>
</clipPath>
<clipPath id="clip3_6996_21762">
<rect width="122" height="44" fill="white"/>
</clipPath>
</defs>
</svg>
