<svg xmlns="http://www.w3.org/2000/svg" width="95" height="48" viewBox="0 0 95 48">
    <defs>
        <style>
            .prefix__cls-4{fill:#22297c}
        </style>
    </defs>
    <g id="prefix__dahabia" transform="translate(-1301 -4017)">
        <g id="prefix___668541d16e3afac0dd4e581b23d484ea" data-name="668541d16e3afac0dd4e581b23d484ea" transform="translate(1301 4017)" style="stroke:#0d2a75;fill:#fff">
            <rect width="95" height="48" rx="8" style="stroke:none"/>
            <rect width="94" height="47" x=".5" y=".5" rx="7.5" style="fill:none"/>
        </g>
        <rect id="prefix__Rectangle_273" width="40" height="40" data-name="Rectangle 273" rx="20" transform="translate(1329 4021)" style="fill:#fff"/>
        <path id="prefix__path3" d="M32.458 68.289a27.211 27.211 0 0 1-7.437 3.584l-.006-1.588-3.032.922-.006 1.135c-6.5.081-7.383-6.892-2.941-11.512-2.975 6.888 7.164 5.763 11.524 6.4 1.149.17 1.898.47 1.898 1.059z" transform="translate(1322.83 3974.075)" style="fill:#fecc0b"/>
        <path id="prefix__polygon5" d="M138.867 144.6v.839l-1.888.575v-.84z" class="prefix__cls-4" transform="translate(1219.302 3902.224)"/>
        <path id="prefix__polygon7" d="M69.119 163.689v.919l-.435.132-1.494.455v-.919l1.494-.455z" class="prefix__cls-4" transform="translate(1279.16 3885.851)"/>
        <path id="prefix__polygon9" d="M53.369 169.126v.919l-1.227.374-.7.213v-.919l.7-.213z" class="prefix__cls-4" transform="translate(1292.669 3881.188)"/>
        <path id="prefix__path11" d="M94.444 117.43v1.7c0 .32-.285.723-.932.956l-1.914.582-.711.216v2.558a1 1 0 0 1-.729.872l-2.179.663-.978.3s-2.155.658-2.174.662c-.44.1-.612-.12-.636-.325v-1.75l2.81-.854v1.026c0 .308.969.234.978-.193V119.4l2.861-.871v1.127a.479.479 0 0 0 .865-.216v-1.174l1.885-.573z" class="prefix__cls-4" transform="translate(1264.578 3925.528)"/>
        <path id="prefix__path13" d="M21.138 19.178c4.269-3.272 6.972-9.486-18.308-11.81 22.103-9.96 29.787 3.842 18.308 11.81z" class="prefix__cls-4" transform="translate(1334.363 4022.912)"/>
        <path id="prefix__path15" d="M40.306 128.145v1.955a.69.69 0 0 1-.552.585l-2.258.687-.489.149-.435.132-1.494.454-.312.1-1.227.373-.7.215-.1.03-2.008.61c-.46.075-.909-.084-.98-.427v-1.646l2.988-.909v1.275c.05.2.756.148.783-.178l.013-2.207.006-1.135 3.032-.922.006 1.588.007 1.6c.014.266.751.1.748-.218l-.006-1.2.172-.056z" class="prefix__cls-4" transform="translate(1311.273 3917.079)"/>
        <path id="prefix__path19" d="M21.932 191.113l.472-1.38h.229l.472 1.38h-.2l-.127-.386h-.535l-.127.386zm.8-.542l-.216-.651-.215.651z" class="prefix__cls-4" transform="translate(1317.979 3863.513)"/>
        <path id="prefix__path21" d="M35.029 191.113h-.811v-1.38h.182v1.217h.625v.163z" class="prefix__cls-4" transform="translate(1307.441 3863.513)"/>
        <path id="prefix__path23" d="M43.165 190.988a.8.8 0 0 1-.271-.045.551.551 0 0 1-.211-.135.61.61 0 0 1-.135-.227.948.948 0 0 1-.047-.311.883.883 0 0 1 .047-.3.639.639 0 0 1 .136-.226.568.568 0 0 1 .21-.14.741.741 0 0 1 .273-.049.886.886 0 0 1 .135.01.984.984 0 0 1 .124.028.954.954 0 0 1 .1.039q.058.025.093.042v.222h-.016c-.023-.02-.047-.04-.072-.058a.625.625 0 0 0-.1-.059.651.651 0 0 0-.13-.046.634.634 0 0 0-.158-.019.4.4 0 0 0-.327.15.606.606 0 0 0-.125.4.806.806 0 0 0 .033.243.5.5 0 0 0 .095.176.4.4 0 0 0 .145.109.468.468 0 0 0 .191.038 1.093 1.093 0 0 0 .157-.011.549.549 0 0 0 .131-.033v-.357h-.323v-.161h.507v.6l-.1.04a1.007 1.007 0 0 1-.111.038 1.2 1.2 0 0 1-.124.031.757.757 0 0 1-.127.011z" class="prefix__cls-4" transform="translate(1300.337 3863.665)"/>
        <path id="prefix__path25" d="M55.5 191.113v-1.38h.875v.163h-.689v.378h.642v.163h-.642v.513h.689v.163H55.5z" class="prefix__cls-4" transform="translate(1289.185 3863.513)"/>
        <path id="prefix__path27" d="M65.59 191.113h-.241l-.444-.549h-.212v.549h-.186v-1.38h.361a1.293 1.293 0 0 1 .2.013.4.4 0 0 1 .155.06.348.348 0 0 1 .116.12.356.356 0 0 1 .043.182.406.406 0 0 1-.078.254.458.458 0 0 1-.212.151zm-.4-.992a.254.254 0 0 0-.022-.107.182.182 0 0 0-.067-.076.265.265 0 0 0-.092-.037.688.688 0 0 0-.131-.011h-.184v.521h.163A.667.667 0 0 0 65 190.4a.223.223 0 0 0 .109-.057.24.24 0 0 0 .06-.093.371.371 0 0 0 .018-.129z" class="prefix__cls-4" transform="translate(1281.463 3863.513)"/>
        <path id="prefix__path29" d="M75.071 191.113h-.185V189.731h.187v1.241z" class="prefix__cls-4" transform="translate(1272.559 3863.513)"/>
        <path id="prefix__path31" d="M80.776 191.113v-1.38h.875v.163h-.689v.378h.638v.163h-.642v.513h.689v.163h-.875z" class="prefix__cls-4" transform="translate(1267.508 3863.513)"/>
        <path id="prefix__path35" d="M96.316 189.308a.5.5 0 0 1-.04.2.412.412 0 0 1-.115.156.784.784 0 0 1-.1.071.665.665 0 0 1-.122.056.906.906 0 0 1-.145.036 1.066 1.066 0 0 1-.175.013h-.237v.484h-.452v-1.479h.7a1.351 1.351 0 0 1 .269.023.713.713 0 0 1 .2.074.4.4 0 0 1 .157.148.42.42 0 0 1 .06.218zm-.464.009a.167.167 0 0 0-.036-.108.187.187 0 0 0-.087-.062.452.452 0 0 0-.123-.026h-.223v.443h.152a.8.8 0 0 0 .1-.007.374.374 0 0 0 .077-.019.211.211 0 0 0 .062-.032.2.2 0 0 0 .062-.076.29.29 0 0 0 .016-.113z" class="prefix__cls-4" transform="translate(1255.367 3864.278)"/>
        <path id="prefix__path37" d="M108.368 189.4a.713.713 0 0 1-.233.564.933.933 0 0 1-.639.205.923.923 0 0 1-.639-.208.8.8 0 0 1 0-1.125 1.093 1.093 0 0 1 1.278 0 .715.715 0 0 1 .233.564zm-.467 0a.673.673 0 0 0-.033-.225.434.434 0 0 0-.089-.153.341.341 0 0 0-.131-.087.465.465 0 0 0-.3 0 .359.359 0 0 0-.13.087.422.422 0 0 0-.09.153.784.784 0 0 0 0 .454.433.433 0 0 0 .089.15.333.333 0 0 0 .132.088.45.45 0 0 0 .152.026.433.433 0 0 0 .155-.028.329.329 0 0 0 .129-.088.456.456 0 0 0 .089-.15.671.671 0 0 0 .026-.233z" class="prefix__cls-4" transform="translate(1245.337 3864.463)"/>
        <path id="prefix__path39" d="M121.721 190.184a1.783 1.783 0 0 1-.363-.033 2.132 2.132 0 0 1-.291-.081v-.352h.041a1.091 1.091 0 0 0 .3.145 1.072 1.072 0 0 0 .317.051.961.961 0 0 0 .1-.007.419.419 0 0 0 .1-.022.227.227 0 0 0 .08-.047.108.108 0 0 0-.021-.17.375.375 0 0 0-.127-.051c-.061-.013-.127-.026-.2-.038a1.852 1.852 0 0 1-.2-.044.625.625 0 0 1-.3-.163.371.371 0 0 1-.091-.256.383.383 0 0 1 .214-.336 1.019 1.019 0 0 1 .534-.129 1.929 1.929 0 0 1 .32.027 1.622 1.622 0 0 1 .285.073v.338h-.04a.95.95 0 0 0-.245-.119.923.923 0 0 0-.3-.049.749.749 0 0 0-.106.007.468.468 0 0 0-.1.027.2.2 0 0 0-.073.047.1.1 0 0 0-.031.07.1.1 0 0 0 .049.09.561.561 0 0 0 .189.06l.175.033c.056.011.116.025.18.044a.636.636 0 0 1 .278.149.34.34 0 0 1 .091.248.405.405 0 0 1-.211.354 1.054 1.054 0 0 1-.554.134z" class="prefix__cls-4" transform="translate(1232.949 3864.44)"/>
        <path id="prefix__path41" d="M132.993 190.32v-1.2h-.532v-.282h1.515v.282h-.532v1.2z" class="prefix__cls-4" transform="translate(1223.177 3864.278)"/>
        <path id="prefix__path43" d="M145.418 190.319v-1.479h1.217v.282h-.767v.259h.707v.282h-.707v.373h.767v.282h-1.217z" class="prefix__cls-4" transform="translate(1212.063 3864.279)"/>
    </g>
</svg>
