<svg xmlns="http://www.w3.org/2000/svg" id="prefix__delete_outline-24px" width="24" height="24" viewBox="0 0 24 24">
    <path id="prefix__Path_2378" d="M0 0h24v24H0z" data-name="Path 2378" style="fill:none"/>
    <path id="prefix__Path_2379" d="M6 19a2.006 2.006 0 0 0 2 2h8a2.006 2.006 0 0 0 2-2V9a2.006 2.006 0 0 0-2-2H8a2.006 2.006 0 0 0-2 2zM9 9h6a1 1 0 0 1 1 1v8a1 1 0 0 1-1 1H9a1 1 0 0 1-1-1v-8a1 1 0 0 1 1-1zm6.5-5l-.71-.71a1.009 1.009 0 0 0-.7-.29H9.91a1.009 1.009 0 0 0-.7.29L8.5 4H6a1 1 0 0 0 0 2h12a1 1 0 0 0 0-2z" data-name="Path 2379" style="fill:#ff0a22"/>
</svg>
