<svg width="21" height="17" viewBox="0 0 21 17" fill="none" xmlns="http://www.w3.org/2000/svg">
<path d="M9.5 13.8086H11.5V9.60859L13.1 11.2086L14.5 9.80859L10.5 5.80859L6.5 9.80859L7.9 11.2086L9.5 9.60859V13.8086ZM2.5 16.8086C1.95 16.8086 1.47933 16.6129 1.088 16.2216C0.696 15.8296 0.5 15.3586 0.5 14.8086V2.80859C0.5 2.25859 0.696 1.78793 1.088 1.39659C1.47933 1.00459 1.95 0.808594 2.5 0.808594H8.5L10.5 2.80859H18.5C19.05 2.80859 19.521 3.00459 19.913 3.39659C20.3043 3.78793 20.5 4.25859 20.5 4.80859V14.8086C20.5 15.3586 20.3043 15.8296 19.913 16.2216C19.521 16.6129 19.05 16.8086 18.5 16.8086H2.5Z" fill="white"/>
</svg>
