<svg width="167" height="42" viewBox="0 0 167 42" fill="none" xmlns="http://www.w3.org/2000/svg">
<g id="Layer 2">
<g id="Layer 1">
<path id="Vector" d="M25.5036 31.092V39.7265C25.5028 39.8577 25.476 39.9875 25.4247 40.1083C25.3735 40.2292 25.2988 40.3389 25.2049 40.4311C25.111 40.5232 24.9998 40.5961 24.8775 40.6456C24.7553 40.695 24.6245 40.72 24.4925 40.7192H10.0483C10.8742 40.0994 11.5442 39.2975 12.0055 38.3767C12.4669 37.4558 12.707 36.4411 12.707 35.4124C12.707 34.3836 12.4669 33.3689 12.0055 32.4481C11.5442 31.5272 10.8742 30.7254 10.0483 30.1055H24.4925C24.6242 30.1039 24.7549 30.1282 24.8771 30.1769C24.9993 30.2257 25.1105 30.298 25.2045 30.3897C25.2985 30.4813 25.3733 30.5906 25.4246 30.7111C25.476 30.8317 25.5028 30.9611 25.5036 31.092Z" fill="#191D34"/>
<path id="Vector_2" d="M25.5034 1.4365V10.1772C25.5034 10.4255 25.4042 10.6638 25.2275 10.8394C25.0508 11.015 24.8112 11.1137 24.5614 11.1137L5.03662 11.1137C3.70415 11.1137 2.42627 10.5875 1.48407 9.65077C0.541874 8.71409 0.0125542 7.44367 0.0125542 6.119V5.49467C0.0125542 4.17 0.541874 2.89959 1.48407 1.9629C2.42627 1.02622 3.70415 0.5 5.03662 0.5L24.5614 0.5C24.8112 0.5 25.0508 0.598667 25.2275 0.774295C25.4042 0.949923 25.5034 1.18813 25.5034 1.4365Z" fill="#191D34"/>
<path id="Vector_3" d="M25.5034 16.2392V24.9799C25.5034 25.2283 25.4042 25.4665 25.2275 25.6421C25.0508 25.8177 24.8112 25.9164 24.5614 25.9164H5.03662C3.70415 25.9164 2.42626 25.3902 1.48407 24.4535C0.541872 23.5168 0.0125504 22.2464 0.0125504 20.9217V20.2974C0.0125504 18.9727 0.541872 17.7023 1.48407 16.7656C2.42626 15.829 3.70415 15.3027 5.03662 15.3027L24.5614 15.3027C24.8112 15.3027 25.0508 15.4014 25.2275 15.577C25.4042 15.7527 25.5034 15.9909 25.5034 16.2392Z" fill="#191D34"/>
<path id="Vector_4" d="M5.35063 40.7324C8.3057 40.7324 10.7013 38.3509 10.7013 35.4131C10.7013 32.4753 8.3057 30.0938 5.35063 30.0938C2.39556 30.0938 0 32.4753 0 35.4131C0 38.3509 2.39556 40.7324 5.35063 40.7324Z" fill="#94C221"/>
<path id="Vector_5" d="M67.7242 9.13393C67.6848 9.19154 67.636 9.24219 67.5798 9.28377C63.8494 12.1432 59.7422 9.52102 59.7422 5.94983C59.7372 4.74984 60.2111 3.59684 61.0599 2.74365C61.9087 1.89045 63.0631 1.40669 64.2702 1.39844C67.8247 1.39844 70.4372 5.43788 67.7242 9.13393Z" fill="#191D34"/>
<path id="Vector_6" d="M47.3897 26.4411L56.9543 40.1764C57.0196 40.27 57.0579 40.3796 57.065 40.4932C57.0722 40.6069 57.048 40.7204 56.9949 40.8213C56.9419 40.9223 56.8621 41.0069 56.7641 41.066C56.6662 41.1251 56.5539 41.1564 56.4393 41.1566H47.8607C47.7578 41.1568 47.6565 41.1318 47.5656 41.0839C47.4747 41.036 47.3971 40.9666 47.3395 40.8819L40.8647 31.3109C40.7896 31.1997 40.6805 31.1155 40.5535 31.0707C40.4266 31.0259 40.2885 31.0229 40.1597 31.0621C40.0309 31.1013 39.9181 31.1806 39.8381 31.2884C39.7582 31.3961 39.7151 31.5266 39.7154 31.6605V40.5448C39.7154 40.7104 39.6493 40.8692 39.5315 40.9862C39.4137 41.1033 39.254 41.1691 39.0874 41.1691H31.8214C31.6548 41.1691 31.4951 41.1033 31.3773 40.9862C31.2595 40.8692 31.1934 40.7104 31.1934 40.5448V1.12433C31.1934 0.95875 31.2595 0.799948 31.3773 0.682863C31.4951 0.565778 31.6548 0.5 31.8214 0.5H39.0874C39.254 0.5 39.4137 0.565778 39.5315 0.682863C39.6493 0.799948 39.7154 0.95875 39.7154 1.12433V21.103C39.7157 21.2357 39.7586 21.3649 39.8378 21.4718C39.917 21.5787 40.0283 21.6577 40.1557 21.6973C40.2832 21.737 40.42 21.7353 40.5463 21.6924C40.6727 21.6495 40.782 21.5677 40.8584 21.4589L46.5544 13.3425C46.6122 13.2598 46.6891 13.1922 46.7788 13.1455C46.8685 13.0987 46.9682 13.0742 47.0694 13.0741H55.2649C55.38 13.0746 55.4927 13.1066 55.5907 13.1664C55.6888 13.2263 55.7684 13.3118 55.8209 13.4136C55.8734 13.5154 55.8967 13.6296 55.8884 13.7436C55.88 13.8577 55.8403 13.9673 55.7736 14.0605L47.396 25.7231C47.3207 25.8276 47.2798 25.9526 47.2786 26.0811C47.2775 26.2096 47.3163 26.3353 47.3897 26.4411Z" fill="#191D34"/>
<path id="Vector_7" d="M67.9005 13.0371H60.6846C60.3378 13.0371 60.0566 13.3166 60.0566 13.6614V40.5453C60.0566 40.8901 60.3378 41.1696 60.6846 41.1696H67.9005C68.2473 41.1696 68.5285 40.8901 68.5285 40.5453V13.6614C68.5285 13.3166 68.2473 13.0371 67.9005 13.0371Z" fill="#191D34"/>
<path id="Vector_8" d="M103.772 25.2414L111.71 29.4681L111.421 30.0925C109.603 33.9182 106.607 37.0696 102.868 39.0908C99.1281 41.112 94.8389 41.8983 90.6203 41.3359C86.4017 40.7735 82.4724 38.8916 79.4007 35.9624C76.329 33.0332 74.2743 29.2085 73.5336 25.0416C72.8757 20.9203 73.5348 16.6976 75.4182 12.9683C77.3016 9.23901 80.3144 6.19108 84.0321 4.2538C87.7498 2.31653 91.9852 1.58754 96.1417 2.16951C100.298 2.75148 104.166 4.61509 107.201 7.49784L107.716 7.98482L101.587 14.5153L101.066 14.0221C99.4025 12.3996 97.2672 11.3397 94.9634 10.9932C92.6596 10.6466 90.3045 11.031 88.2331 12.0918C86.1617 13.1525 84.4795 14.8356 83.4257 16.9016C82.3719 18.9676 82.0002 21.3113 82.3634 23.5994C82.8649 26.449 84.4827 28.9846 86.862 30.6501C89.2413 32.3155 92.1878 32.9749 95.0555 32.4837C96.8903 32.1786 98.6196 31.4233 100.087 30.2863C101.554 29.1493 102.713 27.6664 103.458 25.9719L103.772 25.2414Z" fill="#94C221"/>
<path id="Vector_9" d="M135.493 9.13393C135.453 9.19154 135.405 9.24219 135.348 9.28377C131.618 12.1432 127.511 9.52102 127.511 5.94983C127.506 4.74984 127.98 3.59684 128.828 2.74365C129.677 1.89045 130.832 1.40669 132.039 1.39844C135.587 1.39844 138.206 5.43788 135.493 9.13393Z" fill="#94C221"/>
<path id="Vector_10" d="M121.752 0.5H114.48C114.133 0.5 113.852 0.779524 113.852 1.12433V40.5448C113.852 40.8896 114.133 41.1691 114.48 41.1691H121.752C122.099 41.1691 122.38 40.8896 122.38 40.5448V1.12433C122.38 0.779524 122.099 0.5 121.752 0.5Z" fill="#94C221"/>
<path id="Vector_11" d="M135.675 13.0371H128.459C128.112 13.0371 127.831 13.3166 127.831 13.6614V40.5453C127.831 40.8901 128.112 41.1696 128.459 41.1696H135.675C136.022 41.1696 136.303 40.8901 136.303 40.5453V13.6614C136.303 13.3166 136.022 13.0371 135.675 13.0371Z" fill="#94C221"/>
<path id="Vector_12" d="M166.372 41.1691H157.793C157.69 41.1693 157.589 41.1443 157.498 41.0964C157.407 41.0485 157.33 40.9791 157.272 40.8944L150.797 31.3109C150.722 31.1997 150.613 31.1155 150.486 31.0707C150.359 31.0259 150.221 31.0229 150.092 31.0621C149.963 31.1013 149.851 31.1806 149.771 31.2884C149.691 31.3961 149.648 31.5266 149.648 31.6605V40.5448C149.648 40.7104 149.582 40.8692 149.464 40.9862C149.346 41.1033 149.187 41.1691 149.02 41.1691H141.748C141.581 41.1691 141.421 41.1033 141.304 40.9862C141.186 40.8692 141.12 40.7104 141.12 40.5448V1.12433C141.12 0.95875 141.186 0.799948 141.304 0.682863C141.421 0.565778 141.581 0.5 141.748 0.5H149.02C149.187 0.5 149.346 0.565778 149.464 0.682863C149.582 0.799948 149.648 0.95875 149.648 1.12433V21.103C149.648 21.2357 149.691 21.3649 149.77 21.4718C149.85 21.5787 149.961 21.6577 150.088 21.6973C150.216 21.737 150.353 21.7353 150.479 21.6924C150.605 21.6495 150.715 21.5677 150.791 21.4589L156.481 13.3425C156.538 13.2598 156.615 13.1922 156.705 13.1455C156.795 13.0987 156.894 13.0742 156.996 13.0741H165.21C165.325 13.0746 165.438 13.1066 165.536 13.1664C165.634 13.2263 165.713 13.3118 165.766 13.4136C165.818 13.5154 165.842 13.6296 165.833 13.7436C165.825 13.8577 165.785 13.9673 165.719 14.0605L157.322 25.7231C157.248 25.8282 157.208 25.9536 157.208 26.0821C157.208 26.2106 157.248 26.3359 157.322 26.4411L166.893 40.1764C166.962 40.2705 167.004 40.3819 167.012 40.4981C167.021 40.6143 166.997 40.7306 166.943 40.8338C166.889 40.9371 166.806 41.0233 166.705 41.0825C166.605 41.1418 166.489 41.1718 166.372 41.1691Z" fill="#94C221"/>
</g>
</g>
</svg>
