<svg width="543" height="543" viewBox="0 0 543 543" fill="none" xmlns="http://www.w3.org/2000/svg">
  <rect width="543" height="543" fill="white"/>
  <g clip-path="url(#clip0_283_2358)">
    <path d="M198.917 284.8V295.751C198.916 295.918 198.883 296.082 198.819 296.235C198.755 296.389 198.661 296.528 198.544 296.645C198.426 296.762 198.287 296.854 198.134 296.917C197.981 296.979 197.817 297.011 197.652 297.01H179.575C180.609 296.224 181.447 295.207 182.025 294.039C182.602 292.871 182.902 291.584 182.902 290.28C182.902 288.975 182.602 287.688 182.025 286.52C181.447 285.352 180.609 284.335 179.575 283.549H197.652C197.817 283.547 197.98 283.578 198.133 283.639C198.286 283.701 198.426 283.793 198.543 283.909C198.661 284.026 198.754 284.164 198.819 284.317C198.883 284.47 198.916 284.634 198.917 284.8V284.8Z" fill="#009DCC"/>
    <path d="M198.917 247.188V258.273C198.917 258.588 198.793 258.891 198.572 259.113C198.351 259.336 198.051 259.461 197.739 259.461H173.303C171.636 259.461 170.036 258.794 168.857 257.606C167.678 256.418 167.016 254.807 167.016 253.127V252.335C167.016 250.655 167.678 249.043 168.857 247.855C170.036 246.667 171.636 246 173.303 246H197.739C198.051 246 198.351 246.125 198.572 246.348C198.793 246.571 198.917 246.873 198.917 247.188V247.188Z" fill="#009DCC"/>
    <path d="M198.917 265.963V277.049C198.917 277.364 198.793 277.666 198.572 277.889C198.351 278.111 198.051 278.237 197.739 278.237H173.303C171.636 278.237 170.036 277.569 168.857 276.381C167.678 275.193 167.016 273.582 167.016 271.902V271.11C167.016 269.43 167.678 267.819 168.857 266.631C170.036 265.443 171.636 264.775 173.303 264.775H197.739C198.051 264.775 198.351 264.901 198.572 265.123C198.793 265.346 198.917 265.648 198.917 265.963V265.963Z" fill="#009DCC"/>
    <path d="M173.696 297.026C177.395 297.026 180.393 294.006 180.393 290.28C180.393 286.554 177.395 283.533 173.696 283.533C169.998 283.533 167 286.554 167 290.28C167 294.006 169.998 297.026 173.696 297.026Z" fill="#98BD20"/>
    <path d="M251.757 256.951C251.708 257.025 251.646 257.089 251.576 257.142C246.908 260.768 241.767 257.442 241.767 252.913C241.761 251.391 242.354 249.929 243.416 248.847C244.479 247.765 245.924 247.151 247.434 247.141C251.883 247.141 255.152 252.264 251.757 256.951Z" fill="#009DCC"/>
    <path d="M226.308 278.901L238.278 296.321C238.36 296.44 238.408 296.579 238.417 296.723C238.425 296.867 238.395 297.011 238.329 297.139C238.262 297.267 238.162 297.375 238.04 297.45C237.917 297.525 237.777 297.564 237.633 297.564H226.897C226.769 297.565 226.642 297.533 226.528 297.472C226.414 297.412 226.317 297.324 226.245 297.216L218.142 285.077C218.048 284.936 217.911 284.829 217.752 284.773C217.594 284.716 217.421 284.712 217.259 284.762C217.098 284.811 216.957 284.912 216.857 285.049C216.757 285.185 216.703 285.351 216.704 285.521V296.788C216.704 296.999 216.621 297.2 216.473 297.348C216.326 297.497 216.126 297.58 215.918 297.58H206.824C206.616 297.58 206.416 297.497 206.268 297.348C206.121 297.2 206.038 296.999 206.038 296.788V246.792C206.038 246.582 206.121 246.38 206.268 246.232C206.416 246.083 206.616 246 206.824 246H215.918C216.126 246 216.326 246.083 216.473 246.232C216.621 246.38 216.704 246.582 216.704 246.792V272.131C216.704 272.299 216.758 272.463 216.857 272.598C216.956 272.734 217.095 272.834 217.255 272.884C217.414 272.935 217.585 272.933 217.743 272.878C217.902 272.824 218.038 272.72 218.134 272.582L225.263 262.288C225.335 262.183 225.431 262.097 225.543 262.038C225.656 261.979 225.78 261.948 225.907 261.948H236.164C236.308 261.948 236.449 261.989 236.571 262.065C236.694 262.141 236.794 262.249 236.859 262.378C236.925 262.507 236.954 262.652 236.944 262.797C236.933 262.942 236.884 263.081 236.8 263.199L226.316 277.99C226.222 278.123 226.17 278.281 226.169 278.444C226.167 278.607 226.216 278.767 226.308 278.901V278.901Z" fill="#009DCC"/>
    <path d="M251.977 261.9H242.946C242.512 261.9 242.16 262.255 242.16 262.692V296.789C242.16 297.226 242.512 297.581 242.946 297.581H251.977C252.411 297.581 252.763 297.226 252.763 296.789V262.692C252.763 262.255 252.411 261.9 251.977 261.9Z" fill="#009DCC"/>
    <path d="M296.87 277.38L306.805 282.741L306.443 283.533C304.167 288.385 300.418 292.382 295.738 294.945C291.058 297.509 285.69 298.506 280.411 297.793C275.131 297.079 270.214 294.693 266.37 290.978C262.525 287.262 259.954 282.412 259.027 277.127C258.204 271.9 259.028 266.544 261.386 261.814C263.743 257.084 267.513 253.219 272.166 250.762C276.819 248.305 282.119 247.38 287.321 248.118C292.523 248.856 297.364 251.22 301.162 254.876L301.806 255.494L294.135 263.776L293.483 263.151C291.402 261.093 288.73 259.749 285.846 259.309C282.963 258.87 280.016 259.357 277.423 260.703C274.831 262.048 272.726 264.183 271.407 266.803C270.088 269.423 269.623 272.396 270.077 275.298C270.705 278.912 272.73 282.128 275.707 284.24C278.685 286.352 282.373 287.189 285.961 286.566C288.258 286.179 290.422 285.221 292.258 283.779C294.094 282.337 295.545 280.456 296.478 278.307L296.87 277.38Z" fill="#98BD20"/>
    <path d="M336.569 256.951C336.52 257.025 336.458 257.089 336.388 257.142C331.72 260.768 326.579 257.442 326.579 252.913C326.573 251.391 327.166 249.929 328.228 248.847C329.291 247.765 330.736 247.151 332.246 247.141C336.687 247.141 339.964 252.264 336.569 256.951Z" fill="#98BD20"/>
    <path d="M319.372 246H310.271C309.837 246 309.485 246.355 309.485 246.792V296.788C309.485 297.226 309.837 297.58 310.271 297.58H319.372C319.806 297.58 320.158 297.226 320.158 296.788V246.792C320.158 246.355 319.806 246 319.372 246Z" fill="#98BD20"/>
    <path d="M336.797 261.9H327.766C327.332 261.9 326.98 262.255 326.98 262.692V296.789C326.98 297.226 327.332 297.581 327.766 297.581H336.797C337.231 297.581 337.583 297.226 337.583 296.789V262.692C337.583 262.255 337.231 261.9 336.797 261.9Z" fill="#98BD20"/>
    <path d="M375.214 297.58H364.478C364.349 297.581 364.222 297.549 364.109 297.488C363.995 297.427 363.898 297.339 363.826 297.232L355.722 285.077C355.628 284.936 355.492 284.829 355.333 284.773C355.174 284.716 355.001 284.712 354.84 284.762C354.679 284.811 354.538 284.912 354.438 285.049C354.338 285.185 354.284 285.351 354.284 285.521V296.788C354.284 296.999 354.201 297.2 354.054 297.348C353.907 297.497 353.707 297.58 353.498 297.58H344.397C344.188 297.58 343.989 297.497 343.841 297.348C343.694 297.2 343.611 296.999 343.611 296.788V246.792C343.611 246.582 343.694 246.38 343.841 246.232C343.989 246.083 344.188 246 344.397 246H353.498C353.707 246 353.907 246.083 354.054 246.232C354.201 246.38 354.284 246.582 354.284 246.792V272.131C354.285 272.299 354.338 272.463 354.437 272.598C354.536 272.734 354.676 272.834 354.835 272.884C354.995 272.935 355.166 272.933 355.324 272.878C355.482 272.824 355.619 272.72 355.715 272.582L362.835 262.288C362.908 262.183 363.004 262.097 363.116 262.038C363.228 261.979 363.353 261.948 363.48 261.948H373.76C373.904 261.948 374.045 261.989 374.168 262.065C374.29 262.141 374.39 262.249 374.456 262.378C374.521 262.507 374.551 262.652 374.54 262.797C374.53 262.942 374.48 263.081 374.397 263.199L363.888 277.99C363.795 278.124 363.746 278.283 363.746 278.446C363.746 278.609 363.795 278.768 363.888 278.901L375.866 296.321C375.953 296.441 376.005 296.582 376.016 296.729C376.027 296.877 375.997 297.024 375.929 297.155C375.861 297.286 375.758 297.395 375.632 297.471C375.505 297.546 375.361 297.584 375.214 297.58Z" fill="#98BD20"/>
  </g>
  <defs>
    <clipPath id="clip0_283_2358">
      <rect width="209" height="52" fill="white" transform="translate(167 246)"/>
    </clipPath>
  </defs>
</svg>
