<svg width="400" height="99" viewBox="0 0 400 99" fill="none" xmlns="http://www.w3.org/2000/svg">
    <g clip-path="url(#clip0_286_2391)">
        <path d="M61.087 73.6484V94.4347C61.085 94.7505 61.0208 95.0628 60.8981 95.3538C60.7753 95.6448 60.5964 95.9088 60.3715 96.1307C60.1466 96.3527 59.8802 96.5281 59.5874 96.6472C59.2946 96.7662 58.9813 96.8264 58.6652 96.8244H24.0684C26.0465 95.3323 27.6512 93.402 28.7562 91.1851C29.8612 88.9683 30.4363 86.5256 30.4363 84.049C30.4363 81.5725 29.8612 79.1297 28.7562 76.9129C27.6512 74.6961 26.0465 72.7657 24.0684 71.2736H58.6652C58.9806 71.2697 59.2936 71.328 59.5863 71.4454C59.8789 71.5628 60.1455 71.7369 60.3706 71.9576C60.5957 72.1783 60.7748 72.4413 60.8978 72.7315C61.0207 73.0216 61.0851 73.3332 61.087 73.6484Z" fill="white" />
        <path d="M61.0859 2.25448V23.2963C61.0859 23.8943 60.8482 24.4677 60.4251 24.8905C60.0019 25.3133 59.428 25.5508 58.8296 25.5508L12.0637 25.5508C8.87214 25.5508 5.81132 24.284 3.55457 22.0291C1.29781 19.7742 0.0299759 16.7158 0.0299759 13.5269V12.0239C0.0299759 8.83497 1.29781 5.77664 3.55457 3.52172C5.81132 1.2668 8.87214 0 12.0637 0L58.8296 0C59.428 0 60.0019 0.237525 60.4251 0.660323C60.8482 1.08312 61.0859 1.65656 61.0859 2.25448Z" fill="white" />
        <path d="M61.0859 37.8912V58.9331C61.0859 59.531 60.8482 60.1044 60.4251 60.5272C60.0019 60.95 59.428 61.1875 58.8296 61.1875H12.0637C8.87213 61.1875 5.81132 59.9207 3.55456 57.6658C1.29781 55.4109 0.0299721 52.3526 0.0299721 49.1636V47.6606C0.0299721 44.4717 1.29781 41.4134 3.55456 39.1584C5.81132 36.9035 8.87213 35.6367 12.0637 35.6367H58.8296C59.428 35.6367 60.0019 35.8742 60.4251 36.297C60.8482 36.7198 61.0859 37.2933 61.0859 37.8912Z" fill="white" />
        <path d="M12.8159 96.8531C19.8939 96.8531 25.6318 91.1199 25.6318 84.0477C25.6318 76.9754 19.8939 71.2422 12.8159 71.2422C5.73787 71.2422 0 76.9754 0 84.0477C0 91.1199 5.73787 96.8531 12.8159 96.8531Z" fill="#98BD20" />
        <path d="M162.214 20.7861C162.12 20.9248 162.003 21.0467 161.868 21.1468C152.933 28.0305 143.096 21.718 143.096 13.1209C143.084 10.2321 144.219 7.4564 146.252 5.40245C148.285 3.34851 151.05 2.18393 153.941 2.16406C162.455 2.16406 168.713 11.8884 162.214 20.7861Z" fill="white" />
        <path d="M113.508 62.4492L136.418 95.515C136.574 95.7403 136.666 96.004 136.683 96.2777C136.7 96.5513 136.642 96.8244 136.515 97.0675C136.388 97.3105 136.197 97.5142 135.962 97.6565C135.728 97.7988 135.459 97.8742 135.184 97.8747H114.637C114.39 97.875 114.148 97.8149 113.93 97.6996C113.712 97.5843 113.526 97.4173 113.388 97.2133L97.8797 74.1725C97.6997 73.9049 97.4384 73.7023 97.1344 73.5944C96.8303 73.4866 96.4996 73.4793 96.191 73.5736C95.8825 73.668 95.6125 73.8589 95.4209 74.1183C95.2293 74.3777 95.1263 74.6918 95.127 75.0142V96.4017C95.127 96.8003 94.9685 97.1826 94.6864 97.4645C94.4043 97.7464 94.0217 97.9047 93.6228 97.9047H76.2191C75.8201 97.9047 75.4375 97.7464 75.1554 97.4645C74.8733 97.1826 74.7148 96.8003 74.7148 96.4017V1.50299C74.7148 1.10437 74.8733 0.722081 75.1554 0.440215C75.4375 0.15835 75.8201 0 76.2191 0L93.6228 0C94.0217 0 94.4043 0.15835 94.6864 0.440215C94.9685 0.722081 95.127 1.10437 95.127 1.50299V49.5986C95.1278 49.9182 95.2304 50.2291 95.4201 50.4864C95.6097 50.7437 95.8765 50.9339 96.1816 51.0294C96.4868 51.1249 96.8145 51.1207 97.1171 51.0175C97.4198 50.9143 97.6816 50.7174 97.8647 50.4553L111.508 30.9165C111.646 30.7174 111.83 30.5546 112.045 30.4421C112.26 30.3296 112.499 30.2706 112.741 30.2702H132.371C132.647 30.2715 132.917 30.3484 133.152 30.4925C133.386 30.6366 133.577 30.8425 133.703 31.0875C133.829 31.3326 133.885 31.6074 133.865 31.8821C133.845 32.1567 133.75 32.4206 133.59 32.6449L113.524 60.7208C113.343 60.9723 113.245 61.2733 113.242 61.5826C113.24 61.8919 113.333 62.1946 113.508 62.4492Z" fill="
#191D34" />
        <path d="M162.635 30.1797H145.352C144.521 30.1797 143.848 30.8526 143.848 31.6827V96.4014C143.848 97.2315 144.521 97.9044 145.352 97.9044H162.635C163.466 97.9044 164.139 97.2315 164.139 96.4014V31.6827C164.139 30.8526 163.466 30.1797 162.635 30.1797Z" fill="white" />
        <path d="M248.557 59.5621L267.57 69.7373L266.878 71.2403C262.522 80.4501 255.347 88.0366 246.39 92.9024C237.433 97.7682 227.16 99.6611 217.055 98.3072C206.951 96.9533 197.539 92.423 190.182 85.3713C182.825 78.3196 177.903 69.1123 176.129 59.0811C174.553 49.1596 176.132 38.9941 180.643 30.0164C185.154 21.0387 192.37 13.7013 201.275 9.0376C210.18 4.37391 220.325 2.61897 230.28 4.01998C240.236 5.42099 249.501 9.90734 256.77 16.8471L258.003 18.0194L243.322 33.7407L242.074 32.5534C238.091 28.6474 232.976 26.0958 227.458 25.2616C221.94 24.4273 216.299 25.3528 211.337 27.9064C206.376 30.46 202.347 34.5117 199.823 39.4853C197.299 44.4588 196.408 50.1009 197.278 55.6092C198.479 62.4692 202.354 68.5732 208.053 72.5826C213.752 76.592 220.81 78.1794 227.678 76.9967C232.073 76.2623 236.215 74.4442 239.73 71.7069C243.244 68.9697 246.019 65.3998 247.805 61.3206L248.557 59.5621Z" fill="#98BD20" />
        <path d="M324.535 20.7861C324.44 20.9248 324.323 21.0467 324.189 21.1468C315.254 28.0305 305.416 21.718 305.416 13.1209C305.404 10.2321 306.539 7.4564 308.572 5.40245C310.605 3.34851 313.37 2.18393 316.261 2.16406C324.76 2.16406 331.033 11.8884 324.535 20.7861Z" fill="#98BD20" />
        <path d="M291.622 0H274.203C273.373 0 272.699 0.672911 272.699 1.50299V96.4017C272.699 97.2318 273.373 97.9047 274.203 97.9047H291.622C292.453 97.9047 293.126 97.2318 293.126 96.4017V1.50299C293.126 0.672911 292.453 0 291.622 0Z" fill="#98BD20" />
        <path d="M324.969 30.1797H307.686C306.855 30.1797 306.182 30.8526 306.182 31.6827V96.4014C306.182 97.2315 306.855 97.9044 307.686 97.9044H324.969C325.8 97.9044 326.473 97.2315 326.473 96.4014V31.6827C326.473 30.8526 325.8 30.1797 324.969 30.1797Z" fill="#98BD20" />
        <path d="M398.496 97.9047H377.949C377.702 97.9051 377.459 97.845 377.242 97.7297C377.024 97.6144 376.838 97.4474 376.7 97.2434L361.192 74.1725C361.012 73.9049 360.75 73.7023 360.446 73.5944C360.142 73.4866 359.811 73.4793 359.503 73.5736C359.194 73.668 358.924 73.8589 358.733 74.1183C358.541 74.3777 358.438 74.6918 358.439 75.0142V96.4017C358.439 96.8003 358.28 97.1826 357.998 97.4645C357.716 97.7464 357.334 97.9047 356.935 97.9047H339.516C339.117 97.9047 338.734 97.7464 338.452 97.4645C338.17 97.1826 338.012 96.8003 338.012 96.4017V1.50299C338.012 1.10437 338.17 0.722081 338.452 0.440215C338.734 0.15835 339.117 0 339.516 0L356.935 0C357.334 0 357.716 0.15835 357.998 0.440215C358.28 0.722081 358.439 1.10437 358.439 1.50299V49.5986C358.44 49.9182 358.542 50.2291 358.732 50.4864C358.922 50.7437 359.188 50.9339 359.494 51.0294C359.799 51.1249 360.126 51.1207 360.429 51.0175C360.732 50.9143 360.994 50.7174 361.177 50.4553L374.805 30.9165C374.943 30.7174 375.127 30.5546 375.342 30.4421C375.557 30.3296 375.796 30.2706 376.038 30.2702H395.713C395.989 30.2715 396.259 30.3484 396.494 30.4925C396.728 30.6366 396.919 30.8425 397.045 31.0875C397.171 31.3326 397.227 31.6074 397.207 31.8821C397.187 32.1567 397.092 32.4206 396.932 32.6449L376.82 60.7208C376.642 60.9739 376.547 61.2757 376.547 61.585C376.547 61.8943 376.642 62.1961 376.82 62.4492L399.745 95.515C399.91 95.7414 400.009 96.0096 400.03 96.2893C400.051 96.569 399.994 96.849 399.864 97.0976C399.734 97.3463 399.537 97.5537 399.295 97.6963C399.054 97.8389 398.777 97.9111 398.496 97.9047Z" fill="#98BD20" />
    </g>
    <defs>
        <clipPath id="clip0_286_2391">
            <rect width="400" height="98.7013" fill="191D34" />
        </clipPath>
    </defs>
</svg>