<svg width="72" height="73" viewBox="0 0 72 73" fill="none" xmlns="http://www.w3.org/2000/svg">
<path d="M36 72.4104C55.8823 72.4104 72 56.2927 72 36.4104C72 16.5281 55.8823 0.4104 36 0.4104C16.1177 0.4104 0 16.5281 0 36.4104C0 56.2927 16.1177 72.4104 36 72.4104Z" fill="#F0F3F4"/>
<path d="M37.0156 47.9818L24.4285 35.3947V37.9661C24.4275 38.3036 24.4941 38.6379 24.6244 38.9492C24.7547 39.2606 24.946 39.5427 25.187 39.7789L35.2028 49.7947C35.4416 50.0337 35.7252 50.2234 36.0373 50.3528C36.3495 50.4822 36.6841 50.5488 37.022 50.5488C37.36 50.5488 37.6946 50.4822 38.0068 50.3528C38.3189 50.2234 38.6025 50.0337 38.8413 49.7947L46.8256 41.8104C47.0647 41.5716 47.2544 41.288 47.3838 40.9758C47.5132 40.6636 47.5798 40.329 47.5798 39.9911C47.5798 39.6532 47.5132 39.3185 47.3838 39.0064C47.2544 38.6942 47.0647 38.4106 46.8256 38.1718L37.0156 47.9818Z" fill="#003147"/>
<path d="M35.203 43.3661C35.4418 43.6052 35.7254 43.7948 36.0376 43.9243C36.3498 44.0537 36.6844 44.1203 37.0223 44.1203C37.3602 44.1203 37.6948 44.0537 38.007 43.9243C38.3192 43.7948 38.6028 43.6052 38.8416 43.3661L46.8259 35.3818C47.0649 35.143 47.2546 34.8594 47.384 34.5472C47.5134 34.2351 47.58 33.9005 47.58 33.5625C47.58 33.2246 47.5134 32.89 47.384 32.5778C47.2546 32.2657 47.0649 31.9821 46.8259 31.7432L36.8102 21.7275C36.3218 21.2508 35.6669 20.9833 34.9844 20.9818H27.0002C26.3188 20.9838 25.6659 21.2554 25.1841 21.7372C24.7023 22.219 24.4308 22.8719 24.4287 23.5532V31.5375C24.4277 31.875 24.4943 32.2093 24.6246 32.5207C24.7549 32.832 24.9462 33.1142 25.1873 33.3504L35.203 43.3661ZM29.893 24.839C30.2109 24.839 30.5216 24.9332 30.7859 25.1098C31.0502 25.2864 31.2562 25.5374 31.3778 25.8311C31.4995 26.1247 31.5313 26.4479 31.4693 26.7596C31.4073 27.0714 31.2542 27.3578 31.0294 27.5825C30.8047 27.8073 30.5183 27.9603 30.2065 28.0224C29.8948 28.0844 29.5716 28.0525 29.278 27.9309C28.9843 27.8093 28.7333 27.6033 28.5567 27.339C28.3801 27.0747 28.2859 26.764 28.2859 26.4461C28.2859 26.0199 28.4552 25.6111 28.7566 25.3097C29.058 25.0083 29.4668 24.839 29.893 24.839Z" fill="#459AD4"/>
</svg>
