<svg width="24" height="25" viewBox="0 0 24 25" fill="none" xmlns="http://www.w3.org/2000/svg">
<mask id="mask0_73_988" style="mask-type:alpha" maskUnits="userSpaceOnUse" x="0" y="0" width="24" height="25">
<rect y="0.933594" width="24" height="24" fill="#D9D9D9"/>
</mask>
<g mask="url(#mask0_73_988)">
<path d="M12.0002 15.8836C11.8669 15.8836 11.7419 15.8626 11.6252 15.8206C11.5085 15.7792 11.4002 15.7086 11.3002 15.6086L6.67518 10.9836C6.49185 10.8002 6.40452 10.5709 6.41318 10.2956C6.42118 10.0209 6.51685 9.7919 6.70018 9.60857C6.88352 9.42524 7.11685 9.33357 7.40018 9.33357C7.68352 9.33357 7.91685 9.42524 8.10018 9.60857L12.0002 13.5086L15.9252 9.58357C16.1085 9.40024 16.3379 9.31257 16.6132 9.32057C16.8879 9.32924 17.1168 9.42524 17.3002 9.60857C17.4835 9.7919 17.5752 10.0252 17.5752 10.3086C17.5752 10.5919 17.4835 10.8252 17.3002 11.0086L12.7002 15.6086C12.6002 15.7086 12.4919 15.7792 12.3752 15.8206C12.2585 15.8626 12.1335 15.8836 12.0002 15.8836Z" fill="#003147"/>
</g>
</svg>
