<svg xmlns="http://www.w3.org/2000/svg" id="prefix__file_copy-24px" width="36" height="36" viewBox="0 0 36 36">
    <defs>
        <linearGradient id="prefix__linear-gradient" x1=".5" x2=".5" y2="1" gradientUnits="objectBoundingBox">
            <stop offset="0" stop-color="#3d9cf4"/>
            <stop offset="1" stop-color="#023382"/>
        </linearGradient>
    </defs>
    <path id="prefix__Path_2355" d="M0 0h36v36H0z" data-name="Path 2355" style="fill:none"/>
    <path id="prefix__Subtraction_1" d="M-10911.262-705h-17.966a3.176 3.176 0 0 1-3.247-3.091l.017-21.636a3.176 3.176 0 0 1 3.247-3.091h10.067a3.353 3.353 0 0 1 2.317.911l7.879 7.465a3.027 3.027 0 0 1 .947 2.18v14.171a3.183 3.183 0 0 1-3.261 3.091zm-12.329-7.091a4.316 4.316 0 0 0 1.475 2.188 4.065 4.065 0 0 0 2.542.821 4.17 4.17 0 0 0 1.875-.417 3.382 3.382 0 0 0 1.326-1.169l-1.027-.807a2.5 2.5 0 0 1-2.119 1.068 2.621 2.621 0 0 1-1.51-.445 2.817 2.817 0 0 1-.991-1.238h2.707l.3-1.134h-3.3l-.008-.141c-.014-.228-.02-.337-.02-.377s0-.112.014-.239l.014-.228h3.582l.289-1.134h-3.61a2.79 2.79 0 0 1 .985-1.279 2.641 2.641 0 0 1 1.543-.458 2.5 2.5 0 0 1 2.119 1.054l1.027-.793a3.383 3.383 0 0 0-1.326-1.169 4.17 4.17 0 0 0-1.875-.417 4.059 4.059 0 0 0-2.548.829 4.308 4.308 0 0 0-1.5 2.235h-1.367v1.134h1.161a3.88 3.88 0 0 0-.014.467c0 .048.007.213.027.519h-1.18v1.134zm4.17-18.411v6.957a1.592 1.592 0 0 0 1.631 1.546h7.344l-8.975-8.5zm-17.946 16.228a1.593 1.593 0 0 1-1.633-1.546v-20.09a3.184 3.184 0 0 1 3.264-3.091h17.946a1.592 1.592 0 0 1 1.631 1.546 1.592 1.592 0 0 1-1.631 1.546h-16.315a1.592 1.592 0 0 0-1.631 1.546v18.545a1.592 1.592 0 0 1-1.631 1.544z" data-name="Subtraction 1" transform="translate(10941 740)"/>
</svg>
