<svg xmlns="http://www.w3.org/2000/svg" width="24" height="24" viewBox="0 0 24 24">
    <g id="prefix__headset_mic-24px" transform="translate(-13 -592)">
        <g id="prefix__headset_mic-24px-2" data-name="headset_mic-24px" transform="translate(16 593)">
            <path id="prefix__headset_mic-24px-3" fill="#459ad4" d="M11.4 1.02A9.211 9.211 0 0 0 3 10.31V17a3 3 0 0 0 3 3h1a2.006 2.006 0 0 0 2-2v-4a2.006 2.006 0 0 0-2-2H5v-1.71A7.191 7.191 0 0 1 11.79 3 7 7 0 0 1 19 10v2h-2a2.006 2.006 0 0 0-2 2v4a2.006 2.006 0 0 0 2 2h2v1h-6a1 1 0 0 0 0 2h5a3 3 0 0 0 3-3V10a9 9 0 0 0-9.6-8.98z" data-name="headset_mic-24px" transform="translate(-3 -1)"/>
        </g>
        <path id="prefix__Rectangle_553" fill="none" d="M0 0H24V24H0z" data-name="Rectangle 553" transform="translate(13 592)"/>
    </g>
</svg>
