<svg xmlns="http://www.w3.org/2000/svg" xmlns:xlink="http://www.w3.org/1999/xlink" width="36" height="36" viewBox="0 0 36 36">
  <defs>
    <style>
      .cls-1 {
        fill: #1F2F79;
      }

      .cls-2 {
        fill: none;
      }
    </style>
    <linearGradient id="linear-gradient" x1="0.5" x2="0.5" y2="1" gradientUnits="objectBoundingBox">
      <stop offset="0" stop-color="#98BD20"/>
      <stop offset="1" stop-color="#023382"/>
    </linearGradient>
  </defs>
  <g id="headset_mic-24px" transform="translate(-13 -592)">
    <g id="headset_mic-24px-2" data-name="headset_mic-24px" transform="translate(16 593)">
      <path id="headset_mic-24px-3" data-name="headset_mic-24px" class="cls-1" d="M17,1.031A14.692,14.692,0,0,0,3,15.388V25.727a4.822,4.822,0,0,0,5,4.636H9.667A3.228,3.228,0,0,0,13,27.273V21.091A3.228,3.228,0,0,0,9.667,18H6.333V15.357A11.5,11.5,0,0,1,17.65,4.091c6.617-.17,12.017,4.729,12.017,10.818V18H26.333A3.228,3.228,0,0,0,23,21.091v6.182a3.228,3.228,0,0,0,3.333,3.091h3.333v1.545h-10a1.55,1.55,0,1,0,0,3.091H28a4.822,4.822,0,0,0,5-4.636V14.909c0-7.99-7.267-14.4-16-13.878Z" transform="translate(-3 -1)"/>
    </g>
    <rect id="Rectangle_553" data-name="Rectangle 553" class="cls-2" width="36" height="36" transform="translate(13 592)"/>
  </g>
</svg>
