<svg width="14" height="14" viewBox="0 0 14 14" fill="none" xmlns="http://www.w3.org/2000/svg">
<path d="M6.96732 10.8092C7.20065 10.8092 7.39798 10.7286 7.55932 10.5672C7.72021 10.4064 7.80065 10.2092 7.80065 9.97591C7.80065 9.74258 7.72021 9.54547 7.55932 9.38458C7.39798 9.22324 7.20065 9.14258 6.96732 9.14258C6.73398 9.14258 6.53665 9.22324 6.37532 9.38458C6.21443 9.54547 6.13398 9.74258 6.13398 9.97591C6.13398 10.2092 6.21443 10.4064 6.37532 10.5672C6.53665 10.7286 6.73398 10.8092 6.96732 10.8092ZM7.06732 3.94258C7.37843 3.94258 7.62843 4.02858 7.81732 4.20058C8.00621 4.37302 8.10065 4.59813 8.10065 4.87591C8.10065 5.0648 8.03687 5.25636 7.90932 5.45058C7.78132 5.64524 7.60065 5.84813 7.36732 6.05924C7.03398 6.34813 6.78954 6.62591 6.63398 6.89258C6.47843 7.15924 6.40065 7.42591 6.40065 7.69258C6.40065 7.84813 6.4591 7.97858 6.57598 8.08391C6.69243 8.18969 6.82843 8.24258 6.98398 8.24258C7.13954 8.24258 7.27843 8.18702 7.40065 8.07591C7.52287 7.9648 7.60065 7.82591 7.63398 7.65924C7.66732 7.47036 7.74243 7.29547 7.85932 7.13458C7.97576 6.97324 8.16732 6.7648 8.43398 6.50924C8.77843 6.18702 9.02021 5.89258 9.15932 5.62591C9.29798 5.35924 9.36732 5.0648 9.36732 4.74258C9.36732 4.17591 9.15354 3.71191 8.72598 3.35058C8.29798 2.98969 7.7451 2.80924 7.06732 2.80924C6.60065 2.80924 6.18687 2.89813 5.82598 3.07591C5.46465 3.25369 5.18398 3.52591 4.98398 3.89258C4.90621 4.03702 4.87843 4.17858 4.90065 4.31724C4.92287 4.45636 5.00065 4.57036 5.13398 4.65924C5.27843 4.74813 5.43687 4.77591 5.60932 4.74258C5.78132 4.70924 5.92287 4.6148 6.03398 4.45924C6.15621 4.29258 6.30354 4.1648 6.47598 4.07591C6.64798 3.98702 6.8451 3.94258 7.06732 3.94258ZM7.00065 13.4759C6.08954 13.4759 5.22843 13.3008 4.41732 12.9506C3.60621 12.6008 2.89798 12.1259 2.29265 11.5259C1.68687 10.9259 1.2091 10.2204 0.859318 9.40924C0.509096 8.59813 0.333984 7.73147 0.333984 6.80924C0.333984 5.88702 0.509096 5.02036 0.859318 4.20924C1.2091 3.39813 1.68687 2.69258 2.29265 2.09258C2.89798 1.49258 3.60621 1.01747 4.41732 0.667245C5.22843 0.317467 6.08954 0.142578 7.00065 0.142578C7.93398 0.142578 8.80621 0.317467 9.61732 0.667245C10.4284 1.01747 11.134 1.49258 11.734 2.09258C12.334 2.69258 12.8062 3.39813 13.1507 4.20924C13.4951 5.02036 13.6673 5.88702 13.6673 6.80924C13.6673 7.73147 13.4951 8.59813 13.1507 9.40924C12.8062 10.2204 12.334 10.9259 11.734 11.5259C11.134 12.1259 10.4284 12.6008 9.61732 12.9506C8.80621 13.3008 7.93398 13.4759 7.00065 13.4759Z" fill="#1F2F79"/>
</svg>
