<svg width="48" height="48" viewBox="0 0 48 48" fill="none" xmlns="http://www.w3.org/2000/svg">
<path d="M20.7421 9L38.9999 9C40.1934 9 41.3379 9.47411 42.1819 10.318C43.0258 11.1619 43.4999 12.3065 43.4999 13.5V34.5C43.4999 35.6935 43.0258 36.8381 42.1819 37.682C41.3379 38.5259 40.1934 39 38.9999 39H8.99988C7.8064 39 6.66181 38.5259 5.8179 37.682C4.97398 36.8381 4.49988 35.6935 4.49988 34.5L4.49988 25.2422C4.5 24.4468 4.81597 23.684 5.37832 23.1216L18.6214 9.87844C19.1839 9.31609 19.9467 9.00012 20.7421 9Z" stroke="#959DB3" stroke-width="2" stroke-linejoin="round"/>
<path d="M5.24988 24H16.4999C17.2955 24 18.0586 23.6839 18.6212 23.1213C19.1838 22.5587 19.4999 21.7956 19.4999 21V9.75" stroke="#959DB3" stroke-width="2" stroke-linecap="round" stroke-linejoin="round"/>
<path d="M26.9999 31.5V16.5" stroke="#959DB3" stroke-width="2" stroke-linecap="round" stroke-linejoin="round"/>
<path d="M34.4999 31.5V16.5" stroke="#959DB3" stroke-width="2" stroke-linecap="round" stroke-linejoin="round"/>
</svg>
