<svg xmlns="http://www.w3.org/2000/svg" xmlns:xlink="http://www.w3.org/1999/xlink" width="28" height="28.001" viewBox="0 0 28 28.001">
  <defs>
    <radialGradient id="radial-gradient" cx="0.018" cy="0.908" r="1.446" gradientTransform="matrix(0.052, -0.999, 0.849, 0.044, 0.074, 0.127)" gradientUnits="objectBoundingBox">
      <stop offset="0" stop-color="#fed576"/>
      <stop offset="0.263" stop-color="#f47133"/>
      <stop offset="0.609" stop-color="#bc3081"/>
      <stop offset="1" stop-color="#4c63d2"/>
    </radialGradient>
  </defs>
  <g id="iconfinder_instagram_1632517" transform="translate(0 0.018)">
    <g id="Background_1_" transform="translate(0 -0.018)">
      <path id="Path_2275" data-name="Path 2275" d="M0,13.628v.755a14.171,14.171,0,0,0,12.966,13.6H15.1A14.125,14.125,0,0,0,28,14.372v-.744A14.1,14.1,0,0,0,14.733,0,14.157,14.157,0,0,0,0,13.628Z" transform="translate(0 0.018)" fill="url(#radial-gradient)"/>
    </g>
    <g id="Group_1017" data-name="Group 1017" transform="translate(5.394 5.156)">
      <path id="Path_2276" data-name="Path 2276" d="M113.268,102.19c2.318,0,2.59.006,3.51.051a4.637,4.637,0,0,1,1.607.3,2.673,2.673,0,0,1,.994.659,2.8,2.8,0,0,1,.653,1.011,5.129,5.129,0,0,1,.3,1.642c.045.932.051,1.21.051,3.567s-.006,2.636-.051,3.567a4.714,4.714,0,0,1-.3,1.642,2.724,2.724,0,0,1-.653,1.011,2.673,2.673,0,0,1-.994.659,4.533,4.533,0,0,1-1.607.3c-.914.045-1.193.051-3.51.051s-2.59-.006-3.51-.051a4.637,4.637,0,0,1-1.607-.3,2.674,2.674,0,0,1-.994-.659,2.8,2.8,0,0,1-.653-1.011,5.129,5.129,0,0,1-.3-1.642c-.045-.932-.051-1.21-.051-3.567s.006-2.636.051-3.567a4.714,4.714,0,0,1,.3-1.642,2.724,2.724,0,0,1,.653-1.011,2.674,2.674,0,0,1,.994-.659,4.533,4.533,0,0,1,1.607-.3c.915-.04,1.193-.051,3.51-.051m0-1.59c-2.357,0-2.653.011-3.573.057a6.424,6.424,0,0,0-2.107.409,4.156,4.156,0,0,0-1.534,1.022,4.329,4.329,0,0,0-1,1.568,6.458,6.458,0,0,0-.4,2.141c-.045.937-.051,1.238-.051,3.635s.011,2.7.051,3.635a6.8,6.8,0,0,0,.4,2.141,4.377,4.377,0,0,0,1,1.568,4.25,4.25,0,0,0,1.534,1.022,6.141,6.141,0,0,0,2.107.409c.926.045,1.221.057,3.573.057s2.653-.011,3.573-.057a6.424,6.424,0,0,0,2.107-.409,4.156,4.156,0,0,0,1.534-1.022,4.329,4.329,0,0,0,1-1.568,6.458,6.458,0,0,0,.4-2.141c.045-.937.051-1.238.051-3.635s-.011-2.7-.051-3.635a6.8,6.8,0,0,0-.4-2.141,4.377,4.377,0,0,0-1-1.568,4.25,4.25,0,0,0-1.534-1.022,6.141,6.141,0,0,0-2.107-.409c-.92-.045-1.221-.057-3.573-.057Z" transform="translate(-104.6 -100.6)" fill="#fff"/>
      <path id="Path_2277" data-name="Path 2277" d="M183.253,176.2a4.533,4.533,0,1,0,4.453,4.533A4.489,4.489,0,0,0,183.253,176.2Zm0,7.475a2.943,2.943,0,1,1,2.891-2.942A2.914,2.914,0,0,1,183.253,183.675Z" transform="translate(-174.585 -171.906)" fill="#fff"/>
      <ellipse id="Ellipse_68" data-name="Ellipse 68" cx="1.039" cy="1.057" rx="1.039" ry="1.057" transform="translate(12.258 3.056)" fill="#fff"/>
    </g>
  </g>
</svg>
