<svg width="14" height="14" viewBox="0 0 14 14" fill="none" xmlns="http://www.w3.org/2000/svg">
<path d="M6.33331 10.332H7.66665V6.33203H6.33331V10.332ZM6.99998 4.9987C7.18887 4.9987 7.34731 4.9347 7.47531 4.8067C7.60287 4.67914 7.66665 4.52092 7.66665 4.33203C7.66665 4.14314 7.60287 3.9847 7.47531 3.8567C7.34731 3.72914 7.18887 3.66536 6.99998 3.66536C6.81109 3.66536 6.65287 3.72914 6.52531 3.8567C6.39731 3.9847 6.33331 4.14314 6.33331 4.33203C6.33331 4.52092 6.39731 4.67914 6.52531 4.8067C6.65287 4.9347 6.81109 4.9987 6.99998 4.9987ZM6.99998 13.6654C6.07776 13.6654 5.21109 13.4903 4.39998 13.14C3.58887 12.7903 2.88331 12.3154 2.28331 11.7154C1.68331 11.1154 1.20842 10.4098 0.858646 9.5987C0.508424 8.78759 0.333313 7.92092 0.333313 6.9987C0.333313 6.07648 0.508424 5.20981 0.858646 4.3987C1.20842 3.58759 1.68331 2.88203 2.28331 2.28203C2.88331 1.68203 3.58887 1.20692 4.39998 0.856698C5.21109 0.50692 6.07776 0.332031 6.99998 0.332031C7.9222 0.332031 8.78887 0.50692 9.59998 0.856698C10.4111 1.20692 11.1166 1.68203 11.7166 2.28203C12.3166 2.88203 12.7915 3.58759 13.1413 4.3987C13.4915 5.20981 13.6666 6.07648 13.6666 6.9987C13.6666 7.92092 13.4915 8.78759 13.1413 9.5987C12.7915 10.4098 12.3166 11.1154 11.7166 11.7154C11.1166 12.3154 10.4111 12.7903 9.59998 13.14C8.78887 13.4903 7.9222 13.6654 6.99998 13.6654Z" fill="white"/>
</svg>
