<svg width="14" height="14" viewBox="0 0 14 14" fill="none" xmlns="http://www.w3.org/2000/svg">
<path d="M6.99992 13.6654C6.08881 13.6654 5.2277 13.4903 4.41658 13.14C3.60547 12.7903 2.89725 12.3125 2.29192 11.7067C1.68614 11.1014 1.20836 10.3931 0.858585 9.58203C0.508363 8.77092 0.333252 7.90981 0.333252 6.9987C0.333252 6.07648 0.508363 5.2127 0.858585 4.40736C1.20836 3.60159 1.68614 2.89603 2.29192 2.2907C2.89725 1.68492 3.60547 1.20692 4.41658 0.856698C5.2277 0.50692 6.08881 0.332031 6.99992 0.332031C7.92214 0.332031 8.78592 0.50692 9.59125 0.856698C10.397 1.20692 11.1026 1.68492 11.7079 2.2907C12.3137 2.89603 12.7915 3.60159 13.1413 4.40736C13.4915 5.2127 13.6666 6.07648 13.6666 6.9987C13.6666 7.90981 13.4915 8.77092 13.1413 9.58203C12.7915 10.3931 12.3137 11.1014 11.7079 11.7067C11.1026 12.3125 10.397 12.7903 9.59125 13.14C8.78592 13.4903 7.92214 13.6654 6.99992 13.6654ZM6.99992 12.2987C7.28881 11.8987 7.53881 11.482 7.74992 11.0487C7.96103 10.6154 8.13325 10.1543 8.26658 9.66536H5.73325C5.86659 10.1543 6.03881 10.6154 6.24992 11.0487C6.46103 11.482 6.71103 11.8987 6.99992 12.2987ZM5.26658 12.032C5.06658 11.6654 4.8917 11.2847 4.74192 10.89C4.5917 10.4958 4.46659 10.0876 4.36659 9.66536H2.39992C2.72214 10.2209 3.12481 10.7043 3.60792 11.1154C4.09147 11.5265 4.64436 11.832 5.26658 12.032ZM8.73325 12.032C9.35547 11.832 9.90814 11.5265 10.3913 11.1154C10.8748 10.7043 11.2777 10.2209 11.5999 9.66536H9.63325C9.53325 10.0876 9.40836 10.4958 9.25858 10.89C9.10836 11.2847 8.93325 11.6654 8.73325 12.032ZM1.83325 8.33203H4.09992C4.06659 8.10981 4.04147 7.89025 4.02459 7.67336C4.00814 7.45692 3.99992 7.23203 3.99992 6.9987C3.99992 6.76536 4.00814 6.54048 4.02459 6.32403C4.04147 6.10714 4.06659 5.88759 4.09992 5.66536H1.83325C1.7777 5.88759 1.73592 6.10714 1.70792 6.32403C1.68036 6.54048 1.66659 6.76536 1.66659 6.9987C1.66659 7.23203 1.68036 7.45692 1.70792 7.67336C1.73592 7.89025 1.7777 8.10981 1.83325 8.33203ZM5.43325 8.33203H8.56658C8.59992 8.10981 8.62503 7.89025 8.64192 7.67336C8.65836 7.45692 8.66658 7.23203 8.66658 6.9987C8.66658 6.76536 8.65836 6.54048 8.64192 6.32403C8.62503 6.10714 8.59992 5.88759 8.56658 5.66536H5.43325C5.39992 5.88759 5.37503 6.10714 5.35858 6.32403C5.3417 6.54048 5.33325 6.76536 5.33325 6.9987C5.33325 7.23203 5.3417 7.45692 5.35858 7.67336C5.37503 7.89025 5.39992 8.10981 5.43325 8.33203ZM9.89992 8.33203H12.1666C12.2221 8.10981 12.2639 7.89025 12.2919 7.67336C12.3195 7.45692 12.3333 7.23203 12.3333 6.9987C12.3333 6.76536 12.3195 6.54048 12.2919 6.32403C12.2639 6.10714 12.2221 5.88759 12.1666 5.66536H9.89992C9.93325 5.88759 9.95814 6.10714 9.97458 6.32403C9.99147 6.54048 9.99992 6.76536 9.99992 6.9987C9.99992 7.23203 9.99147 7.45692 9.97458 7.67336C9.95814 7.89025 9.93325 8.10981 9.89992 8.33203ZM9.63325 4.33203H11.5999C11.2777 3.77648 10.8748 3.29314 10.3913 2.88203C9.90814 2.47092 9.35547 2.16536 8.73325 1.96536C8.93325 2.33203 9.10836 2.71248 9.25858 3.1067C9.40836 3.50136 9.53325 3.90981 9.63325 4.33203ZM5.73325 4.33203H8.26658C8.13325 3.84314 7.96103 3.38203 7.74992 2.9487C7.53881 2.51536 7.28881 2.0987 6.99992 1.6987C6.71103 2.0987 6.46103 2.51536 6.24992 2.9487C6.03881 3.38203 5.86659 3.84314 5.73325 4.33203ZM2.39992 4.33203H4.36659C4.46659 3.90981 4.5917 3.50136 4.74192 3.1067C4.8917 2.71248 5.06658 2.33203 5.26658 1.96536C4.64436 2.16536 4.09147 2.47092 3.60792 2.88203C3.12481 3.29314 2.72214 3.77648 2.39992 4.33203Z" fill="#6F7692"/>
</svg>
