<svg xmlns="http://www.w3.org/2000/svg" width="24.037" height="24" viewBox="0 0 24.037 24">
    <defs>
        <style>
            .prefix__cls-1{fill:#007bb6}
        </style>
    </defs>
    <g id="prefix__linkedin" transform="translate(-126.3 -203)">
        <path id="prefix__XMLID_195_" d="M126.689 210.969h4.985V227h-4.985zm2.5-7.969a2.891 2.891 0 1 1-2.891 2.891 2.895 2.895 0 0 1 2.893-2.891" class="prefix__cls-1"/>
        <path id="prefix__XMLID_192_" d="M218.1 285.189h4.772v2.2h.065a5.235 5.235 0 0 1 4.717-2.585c5.041 0 5.977 3.317 5.977 7.636v8.785h-4.976v-7.793c0-1.863-.028-4.253-2.585-4.253-2.595 0-2.984 2.029-2.984 4.114v7.932h-4.976v-16.036z" class="prefix__cls-1" transform="translate(-83.293 -74.22)"/>
    </g>
</svg>
