<svg xmlns="http://www.w3.org/2000/svg" id="prefix__loyalty-24px" width="24" height="24" viewBox="0 0 24 24">
    <path id="prefix__Path_2389" fill="none" d="M0 0h24v24H0z" data-name="Path 2389"/>
    <path id="prefix__Path_2390" fill="#003147" d="M21.41 11.58l-9-9A1.987 1.987 0 0 0 11 2H4a2.006 2.006 0 0 0-2 2v7a2 2 0 0 0 .59 1.42l9 9A1.987 1.987 0 0 0 13 22a1.955 1.955 0 0 0 1.41-.59l7-7A1.955 1.955 0 0 0 22 13a2.02 2.02 0 0 0-.59-1.42zM5.5 7A1.5 1.5 0 1 1 7 5.5 1.5 1.5 0 0 1 5.5 7zm11.77 8.27l-3.92 3.92a.5.5 0 0 1-.71 0l-3.92-3.92a2.53 2.53 0 0 1-.67-2.34 2.491 2.491 0 0 1 4.2-1.19l.75.72.73-.73a2.5 2.5 0 0 1 3.54 3.54z" data-name="Path 2390"/>
</svg>
