<svg id="mail-24px" xmlns="http://www.w3.org/2000/svg" xmlns:xlink="http://www.w3.org/1999/xlink" width="24" height="24" viewBox="0 0 24 24">
  <defs>
    <linearGradient id="linear-gradient" x1="0.5" x2="0.5" y2="1" gradientUnits="objectBoundingBox">
      <stop offset="0" stop-color="#d44638"/>
      <stop offset="1" stop-color="#b23122"/>
    </linearGradient>
  </defs>
  <path id="Path_2330" data-name="Path 2330" d="M0,0H24V24H0Z" fill="none"/>
  <path id="Path_2331" data-name="Path 2331" d="M20,4H4A2.006,2.006,0,0,0,2,6V18a2.006,2.006,0,0,0,2,2H20a2.006,2.006,0,0,0,2-2V6A2.006,2.006,0,0,0,20,4Zm-.4,4.25-6.54,4.09a1.981,1.981,0,0,1-2.12,0L4.4,8.25a.849.849,0,1,1,.9-1.44L12,11l6.7-4.19a.849.849,0,1,1,.9,1.44Z" fill="url(#linear-gradient)"/>
</svg>
