<svg width="27" height="24" viewBox="0 0 27 24" fill="none" xmlns="http://www.w3.org/2000/svg">
<mask id="mask0_2754_5041" style="mask-type:alpha" maskUnits="userSpaceOnUse" x="0" y="0" width="27" height="24">
<rect width="26.3415" height="24" fill="#D9D9D9"/>
</mask>
<g mask="url(#mask0_2754_5041)">
<path d="M4.39004 18C4.07907 18 3.81858 17.904 3.60858 17.712C3.39785 17.5207 3.29248 17.2833 3.29248 17C3.29248 16.7167 3.39785 16.4793 3.60858 16.288C3.81858 16.096 4.07907 16 4.39004 16H21.951C22.262 16 22.5225 16.096 22.7325 16.288C22.9432 16.4793 23.0486 16.7167 23.0486 17C23.0486 17.2833 22.9432 17.5207 22.7325 17.712C22.5225 17.904 22.262 18 21.951 18H4.39004ZM4.39004 13C4.07907 13 3.81858 12.904 3.60858 12.712C3.39785 12.5207 3.29248 12.2833 3.29248 12C3.29248 11.7167 3.39785 11.479 3.60858 11.287C3.81858 11.0957 4.07907 11 4.39004 11H21.951C22.262 11 22.5225 11.0957 22.7325 11.287C22.9432 11.479 23.0486 11.7167 23.0486 12C23.0486 12.2833 22.9432 12.5207 22.7325 12.712C22.5225 12.904 22.262 13 21.951 13H4.39004ZM4.39004 8C4.07907 8 3.81858 7.90433 3.60858 7.713C3.39785 7.521 3.29248 7.28333 3.29248 7C3.29248 6.71667 3.39785 6.479 3.60858 6.287C3.81858 6.09567 4.07907 6 4.39004 6H21.951C22.262 6 22.5225 6.09567 22.7325 6.287C22.9432 6.479 23.0486 6.71667 23.0486 7C23.0486 7.28333 22.9432 7.521 22.7325 7.713C22.5225 7.90433 22.262 8 21.951 8H4.39004Z" fill="white"/>
</g>
</svg>
