<svg
    xmlns="http://www.w3.org/2000/svg"
    id="prefix__view_module-24px"
    width="24"
    height="24"
    viewBox="0 0 24 24"
>
    <path
        id="prefix__Path_2347"
        fill="none"
        d="M0 0h24v24H0z"
        data-name="Path 2347"
    />
    <path
        id="prefix__Path_2348"
        fill="#cbd5d9"
        d="M5 11h3a1 1 0 0 0 1-1V6a1 1 0 0 0-1-1H5a1 1 0 0 0-1 1v4a1 1 0 0 0 1 1zm0 7h3a1 1 0 0 0 1-1v-4a1 1 0 0 0-1-1H5a1 1 0 0 0-1 1v4a1 1 0 0 0 1 1zm6 0h3a1 1 0 0 0 1-1v-4a1 1 0 0 0-1-1h-3a1 1 0 0 0-1 1v4a1 1 0 0 0 1 1zm6 0h3a1 1 0 0 0 1-1v-4a1 1 0 0 0-1-1h-3a1 1 0 0 0-1 1v4a1 1 0 0 0 1 1zm-6-7h3a1 1 0 0 0 1-1V6a1 1 0 0 0-1-1h-3a1 1 0 0 0-1 1v4a1 1 0 0 0 1 1zm5-5v4a1 1 0 0 0 1 1h3a1 1 0 0 0 1-1V6a1 1 0 0 0-1-1h-3a1 1 0 0 0-1 1z"
        data-name="Path 2348"
    />
</svg>