<svg xmlns="http://www.w3.org/2000/svg" xmlns:xlink="http://www.w3.org/1999/xlink" width="238" height="238" viewBox="0 0 238 238">
  <defs>
    <filter id="Ellipse_47" x="7" y="10" width="224" height="224" filterUnits="userSpaceOnUse">
      <feOffset dy="3" input="SourceAlpha"/>
      <feGaussianBlur stdDeviation="3" result="blur"/>
      <feFlood flood-color="#003147" flood-opacity="0.078"/>
      <feComposite operator="in" in2="blur"/>
      <feComposite in="SourceGraphic"/>
    </filter>
  </defs>
  <g id="Paiement_à_la_Livraison" data-name="Paiement à la  Livraison" transform="translate(-841 -3482)">
    <g id="Group_1173" data-name="Group 1173">
      <g transform="matrix(1, 0, 0, 1, 841, 3482)" filter="url(#Ellipse_47)">
        <circle id="Ellipse_47-2" data-name="Ellipse 47" cx="103" cy="103" r="103" transform="translate(16 16)" fill="#fff"/>
      </g>
      <path id="Path_2368" data-name="Path 2368" d="M471.784,1595.346c-16.972,5.6-46.215,2.769-39.823,29.18s23.985,41.707,54.111,35.789,67.57-23.536,65.521-53.641S488.756,1589.741,471.784,1595.346Z" transform="translate(469 1993)" fill="#459ad4" opacity="0.2"/>
      <g id="Buy" transform="translate(915.711 3545.433)">
        <path id="Path_2364" data-name="Path 2364" d="M23.943,14h-3.3a1.648,1.648,0,0,0,0,3.3h3.3a1.648,1.648,0,0,0,0-3.3Z" transform="translate(11.009 7.771)" fill="#459ad4" stroke="#459ad4" stroke-width="2"/>
        <path id="Path_2365" data-name="Path 2365" d="M37.943,14h-3.3a1.648,1.648,0,0,0,0,3.3h3.3a1.648,1.648,0,1,0,0-3.3Z" transform="translate(20.075 7.771)" fill="#459ad4" stroke="#459ad4" stroke-width="2"/>
        <circle id="Ellipse_44" data-name="Ellipse 44" cx="5.433" cy="5.433" r="5.433" transform="translate(39.295 17.926)" fill="#459ad4"/>
        <rect id="Rectangle_499" data-name="Rectangle 499" width="30" height="17" transform="translate(31.289 58.567)" fill="#fcfdff"/>
        <path id="Path_2367" data-name="Path 2367" d="M47.015,28H15.223A1.223,1.223,0,0,0,14,29.223v22.01a1.223,1.223,0,0,0,1.223,1.223H47.015a1.223,1.223,0,0,0,1.223-1.223V29.223A1.223,1.223,0,0,0,47.015,28ZM45.793,50.01H16.446V30.446H45.793Z" transform="translate(14.624 25.613)" fill="#003147" stroke="#003147" stroke-width="2"/>
        <path id="Path_2369" data-name="Path 2369" d="M5.288,88.926v18.081h6.893l5-1.136a23.743,23.743,0,0,0,4.625,1.136c1.269,0,21.771-.691,21.771-.691s6.686-1.1,7.653-2,17.032-12.18,17.032-12.18-.676-3.355-1.279-3.207-8.216,3.02-9.882,3.909-8.875,5.534-8.875,5.534l1.918-4.211A2.6,2.6,0,0,0,47.2,91.243c-3.279.1-14.258,0-14.258,0s-.881-1.457-3.83-2.317-13.9.664-13.9.664Z" transform="translate(-0.311 -8.194)" fill="#fcfdff"/>
        <path id="Path_2366" data-name="Path 2366" d="M70.306,50.921a4.925,4.925,0,0,0-6.755-1.812L52.962,55.2a4.943,4.943,0,0,0-4.829-3.91H35.446l-.33-.221a18.071,18.071,0,0,0-19.936-.109V49.648A1.648,1.648,0,0,0,13.533,48H3.648A1.648,1.648,0,0,0,2,49.648V69.419a1.648,1.648,0,0,0,1.648,1.648h9.886a1.648,1.648,0,0,0,1.648-1.648v-.224l1.539,1.022a4.91,4.91,0,0,0,2.761.85H43.948a4.814,4.814,0,0,0,2.471-.659L68.5,57.671a4.971,4.971,0,0,0,2.471-4.294A4.893,4.893,0,0,0,70.306,50.921Zm-58.42,16.85H5.3V51.3h6.59Zm54.964-12.96-22.1,12.751a1.534,1.534,0,0,1-.8.209H19.481a1.61,1.61,0,0,1-.918-.285L15.181,65.24V54.59a1.648,1.648,0,0,0,.913-.275l.748-.494a14.789,14.789,0,0,1,16.451,0l.746.494a1.648,1.648,0,0,0,.913.275H48.133a1.648,1.648,0,1,1,0,3.3H38.247a1.648,1.648,0,1,0,0,3.3h9.886A4.9,4.9,0,0,0,51.4,59.922l13.818-7.968a1.6,1.6,0,0,1,1.229-.165,1.638,1.638,0,0,1,1.007.778,1.591,1.591,0,0,1,.222.8,1.666,1.666,0,0,1-.824,1.44Z" transform="translate(0 29.789)" fill="#003147" stroke="#003147" stroke-width="2"/>
        <rect id="Rectangle_498" data-name="Rectangle 498" width="41" height="13" rx="2" transform="translate(25.289 49.567)" fill="#459ad4"/>
        <path id="Path_2362" data-name="Path 2362" d="M92.732,2H82.847A1.648,1.648,0,0,0,81.2,3.648v.629L77.688,2.521A4.966,4.966,0,0,0,75.479,2H51.331a4.943,4.943,0,0,0-3.084,1.084L41.358,8.59H13.648A1.648,1.648,0,0,0,12,10.238V36.6a1.648,1.648,0,0,0,1.648,1.648H63.075A1.648,1.648,0,0,0,64.723,36.6V24.157A14.871,14.871,0,0,0,77.81,23.089l2.2-1.318H81.2v1.648a1.648,1.648,0,0,0,1.648,1.648h9.886a1.648,1.648,0,0,0,1.648-1.648V3.648A1.648,1.648,0,0,0,92.732,2ZM15.3,34.952V11.886H54.72l-1.847,1.849a4.942,4.942,0,1,0,6.99,6.99l1.565-1.566V34.952ZM79.541,18.476a1.636,1.636,0,0,0-.839.236l-2.588,1.552a11.583,11.583,0,0,1-10.281.794l-1.11-.451V15.863l2.092-2.092.85.283a11.606,11.606,0,0,0,7.3,0l1.812-.6a1.65,1.65,0,0,0-1.041-3.13l-1.812.606a8.286,8.286,0,0,1-5.21,0L66.9,10.319a1.648,1.648,0,0,0-1.685.4l-3.3,3.3h0l-4.384,4.381a1.647,1.647,0,0,1-2.33-2.33l6.4-6.4a1.647,1.647,0,1,0-2.33-2.33L58.016,8.59H46.634L50.3,5.656a1.648,1.648,0,0,1,1.03-.361H75.479a1.679,1.679,0,0,1,.736.173L81.2,7.961v10.5Zm11.543,3.3h-6.59V5.3h6.59Z" transform="translate(6.476)" fill="#003147" stroke="#003147" stroke-width="2"/>
      </g>
    </g>
    <g id="Ellipse_50" data-name="Ellipse 50" transform="translate(841 3482)" fill="none" stroke="#459ad4" stroke-linecap="round" stroke-linejoin="round" stroke-width="10" stroke-dasharray="0 34">
      <circle cx="119" cy="119" r="119" stroke="none"/>
      <circle cx="119" cy="119" r="114" fill="none"/>
    </g>
  </g>
</svg>
