<svg width="14" height="20" viewBox="0 0 14 20" fill="none" xmlns="http://www.w3.org/2000/svg">
<path d="M7 0C5.14348 0 3.36301 0.737498 2.05025 2.05025C0.737498 3.36301 0 5.14348 0 7C0 11.17 4.42 16.92 6.24 19.11C6.33317 19.2226 6.45005 19.3132 6.58229 19.3754C6.71452 19.4376 6.85886 19.4699 7.005 19.4699C7.15114 19.4699 7.29548 19.4376 7.42771 19.3754C7.55995 19.3132 7.67683 19.2226 7.77 19.11C9.58 16.92 14 11.17 14 7C14 5.14348 13.2625 3.36301 11.9497 2.05025C10.637 0.737498 8.85652 0 7 0ZM7 9.5C6.50555 9.5 6.0222 9.35338 5.61107 9.07867C5.19995 8.80397 4.87952 8.41352 4.6903 7.95671C4.50108 7.49989 4.45157 6.99723 4.54804 6.51227C4.6445 6.02732 4.8826 5.58186 5.23223 5.23223C5.58186 4.8826 6.02732 4.6445 6.51227 4.54804C6.99723 4.45157 7.49989 4.50108 7.95671 4.6903C8.41352 4.87952 8.80397 5.19995 9.07867 5.61107C9.35338 6.0222 9.5 6.50555 9.5 7C9.5 7.3283 9.43534 7.65339 9.3097 7.95671C9.18406 8.26002 8.99991 8.53562 8.76777 8.76777C8.53562 8.99991 8.26002 9.18406 7.95671 9.3097C7.65339 9.43534 7.3283 9.5 7 9.5Z" fill="#009DCC"/>
</svg>
