<svg xmlns="http://www.w3.org/2000/svg" id="print-24px" width="24" height="24" viewBox="0 0 24 24">
    <path id="Path_2383" fill="none" d="M0 0h24v24H0z" data-name="Path 2383"/>
    <path id="Path_2384" fill="#4b5b62" d="M19 8H5a3 3 0 0 0-3 3v4a2.006 2.006 0 0 0 2 2h2v2a2.006 2.006 0 0 0 2 2h8a2.006 2.006 0 0 0 2-2v-2h2a2.006 2.006 0 0 0 2-2v-4a3 3 0 0 0-3-3zm-4 11H9a1 1 0 0 1-1-1v-4h8v4a1 1 0 0 1-1 1zm4-7a1 1 0 1 1 1-1 1 1 0 0 1-1 1zm-2-9H7a1 1 0 0 0-1 1v2a1 1 0 0 0 1 1h10a1 1 0 0 0 1-1V4a1 1 0 0 0-1-1z" data-name="Path 2384"/>
</svg>
