<?xml version="1.0" standalone="no"?>
<!DOCTYPE svg PUBLIC "-//W3C//DTD SVG 20010904//EN"
 "http://www.w3.org/TR/2001/REC-SVG-20010904/DTD/svg10.dtd">
<svg version="1.0" xmlns="http://www.w3.org/2000/svg"
 width="1280.000000pt" height="1280.000000pt" viewBox="0 0 1280.000000 1280.000000"
 preserveAspectRatio="xMidYMid meet">
<g transform="translate(0.000000,1280.000000) scale(0.100000,-0.100000)"
fill="#000000" stroke="none">
<path d="M6070 11580 c-422 -43 -860 -185 -1235 -399 -404 -231 -776 -536
-1074 -881 -130 -150 -249 -320 -484 -686 -86 -134 -97 -156 -97 -197 0 -70 6
-77 59 -77 63 0 113 16 138 42 12 13 33 61 47 108 l26 85 347 351 c192 193
397 394 456 448 425 378 923 606 1449 661 682 71 1251 -123 1917 -653 260
-206 305 -269 263 -364 -21 -49 -61 -85 -253 -230 -70 -53 -141 -99 -159 -103
l-32 -7 6 -51 c8 -60 20 -84 43 -91 27 -7 308 -61 503 -96 218 -39 398 -78
855 -186 489 -116 743 -174 785 -181 30 -4 41 0 67 25 l32 29 -39 151 c-52
196 -85 288 -169 469 -117 253 -198 477 -275 756 -42 154 -64 243 -121 507
-28 128 -47 164 -91 168 -46 5 -101 -39 -226 -180 -176 -197 -224 -232 -319
-232 -70 1 -91 12 -279 141 -555 383 -987 569 -1515 653 -148 23 -486 34 -625
20z"/>
<path d="M10235 8784 c-171 -26 -237 -37 -280 -50 -297 -91 -497 -200 -729
-399 -144 -123 -331 -373 -426 -570 -132 -274 -197 -608 -170 -882 26 -274 78
-461 191 -688 88 -178 176 -301 314 -441 257 -261 569 -429 945 -510 140 -30
414 -43 555 -25 402 50 801 255 1088 561 234 248 379 524 453 860 25 113 27
144 28 335 1 223 -7 289 -61 495 -177 676 -728 1174 -1433 1295 -91 16 -411
28 -475 19z"/>
<path d="M2790 8621 c-189 -30 -347 -79 -500 -156 -478 -238 -830 -663 -974
-1175 -57 -203 -72 -503 -37 -726 102 -650 505 -1161 1111 -1410 367 -150 788
-179 1156 -79 574 157 1063 621 1253 1190 63 189 86 335 85 550 0 200 -20 339
-72 520 -196 675 -725 1150 -1422 1277 -164 30 -443 34 -600 9z"/>
<path d="M3386 4661 c-16 -11 -33 -26 -37 -33 -9 -16 46 -247 90 -377 16 -48
61 -155 99 -237 176 -379 315 -819 397 -1258 19 -105 41 -163 66 -176 38 -21
76 -11 133 35 30 25 59 52 63 60 20 35 233 252 272 277 37 23 56 28 105 28 73
-1 74 -1 373 -201 244 -163 311 -204 469 -283 734 -369 1463 -437 2192 -204
424 135 828 362 1212 682 112 93 414 390 500 491 128 151 177 222 505 725 64
98 68 108 63 162 -3 26 -8 51 -12 55 -4 4 -41 2 -82 -4 -88 -13 -118 -35 -135
-97 -37 -135 -12 -105 -442 -532 -221 -220 -447 -437 -502 -483 -394 -325
-837 -520 -1310 -577 -149 -18 -427 -20 -560 -5 -495 59 -974 294 -1502 739
-127 107 -163 153 -170 215 -9 80 20 113 250 286 81 62 162 114 178 118 29 6
30 7 23 47 -12 74 -28 93 -86 105 -54 11 -244 46 -543 101 -179 33 -588 126
-1170 265 -446 106 -405 99 -439 76z"/>
</g>
</svg>
