<svg width="18" height="16" viewBox="0 0 18 16" fill="none" xmlns="http://www.w3.org/2000/svg">
<path d="M1.4 15.4243C1.06667 15.5577 0.75 15.5283 0.45 15.3363C0.15 15.145 0 14.866 0 14.4993V10.7743C0 10.541 0.0666667 10.3327 0.2 10.1493C0.333333 9.96599 0.516667 9.84932 0.75 9.79932L8 7.99932L0.75 6.19932C0.516667 6.14932 0.333333 6.03266 0.2 5.84932C0.0666667 5.66599 0 5.45766 0 5.22432V1.49932C0 1.13266 0.15 0.853323 0.45 0.661323C0.75 0.46999 1.06667 0.44099 1.4 0.574323L16.8 7.07432C17.2167 7.25766 17.425 7.56599 17.425 7.99932C17.425 8.43266 17.2167 8.74099 16.8 8.92432L1.4 15.4243Z" fill="white"/>
</svg>
