<svg xmlns="http://www.w3.org/2000/svg" id="prefix__shopping_cart-24px" width="24" height="24" viewBox="0 0 36 36">
    <defs>
        <linearGradient id="prefix__linear-gradient" x1=".5" x2=".5" y2="1" gradientUnits="objectBoundingBox">
            <stop offset="0" stop-color="#3d9cf4"/>
            <stop offset="1" stop-color="#023382"/>
        </linearGradient>
    </defs>
    <path id="prefix__Path_23" d="M0 0h36v36H0z" data-name="Path 23" style="fill:none"/>
    <path id="prefix__Path_24" d="M10.6 27.6a3.2 3.2 0 1 0 3.2 3.2 3.2 3.2 0 0 0-3.2-3.2zM1 3.6a1.6 1.6 0 0 0 1.6 1.6h1.6l5.759 12.144-2.16 3.9A3.206 3.206 0 0 0 10.6 26h17.6a1.6 1.6 0 0 0 0-3.2H10.6l1.76-3.2h11.917a3.184 3.184 0 0 0 2.8-1.648L32.8 7.568A1.594 1.594 0 0 0 31.412 5.2H7.735L6.663 2.912A1.588 1.588 0 0 0 5.223 2H2.6A1.6 1.6 0 0 0 1 3.6zm25.6 24a3.2 3.2 0 1 0 3.2 3.2 3.2 3.2 0 0 0-3.2-3.2z" data-name="Path 24"/>
</svg>
