<svg xmlns="http://www.w3.org/2000/svg" id="prefix__star-24px" width="24" height="24" viewBox="0 0 24 24">
    <defs>
        <style>
        .prefix__cls-1{fill:none}
      </style>
    </defs>
    <g id="prefix__Group_16" data-name="Group 16">
        <path id="prefix__Path_437" d="M0 0h24v24H0z" class="prefix__cls-1" data-name="Path 437" />
        <path id="prefix__Path_438" d="M0 0h24v24H0z" class="prefix__cls-1" data-name="Path 438" />
    </g>
    <g id="prefix__Group_17" data-name="Group 17" transform="translate(3.443 3.573)">
        <path id="prefix__Path_439" d="M12 17.27l4.15 2.51a1 1 0 0 0 1.49-1.08l-1.1-4.72 3.67-3.18a1 1 0 0 0-.57-1.75l-4.83-.41-1.89-4.46a1 1 0 0 0-1.84 0L9.19 8.63l-4.83.41a1 1 0 0 0-.57 1.75l3.67 3.18-1.1 4.72a1 1 0 0 0 1.49 1.08z" data-name="Path 439" transform="translate(-3.443 -3.573)" style="fill:#f0f3f4" />
    </g>
</svg>