<svg width="12" height="12" viewBox="0 0 12 12" fill="none" xmlns="http://www.w3.org/2000/svg">
<path d="M10.82 8.17453L9.12668 7.98119C8.92758 7.95786 8.72577 7.97992 8.53641 8.04574C8.34705 8.11155 8.17506 8.2194 8.03335 8.36119L6.80668 9.58786C4.91414 8.62534 3.37587 7.08707 2.41335 5.19453L3.64668 3.96119C3.78847 3.81948 3.89632 3.64749 3.96214 3.45813C4.02795 3.26877 4.05002 3.06697 4.02668 2.86786L3.83335 1.18786C3.79569 0.862586 3.63966 0.562542 3.39499 0.344922C3.15032 0.127302 2.83413 0.00732487 2.50668 0.00786004H1.35335C1.17385 0.00633868 0.995924 0.0413505 0.830388 0.110765C0.664851 0.18018 0.515167 0.282547 0.390441 0.411638C0.265716 0.540728 0.168557 0.693844 0.104876 0.86167C0.0411944 1.0295 0.0123218 1.20852 0.0200148 1.38786C0.193434 4.14055 1.36519 6.73541 3.3155 8.68571C5.2658 10.636 7.86066 11.8078 10.6133 11.9812C10.7927 11.9889 10.9717 11.96 11.1395 11.8963C11.3074 11.8327 11.4605 11.7355 11.5896 11.6108C11.7187 11.486 11.821 11.3364 11.8904 11.1708C11.9599 11.0053 11.9949 10.8274 11.9933 10.6479V9.49453C11.9951 9.16851 11.8762 8.85337 11.6596 8.6097C11.443 8.36603 11.144 8.21104 10.82 8.17453Z" fill="#6F7692"/>
</svg>
