<svg width="14" height="14" viewBox="0 0 14 14" fill="none" xmlns="http://www.w3.org/2000/svg">
<path d="M7.47994 0.353516C6.52625 0.284093 5.56879 0.420827 4.67265 0.754423C3.77651 1.08802 2.9627 1.61066 2.28656 2.2868C1.61041 2.96295 1.08777 3.77675 0.754179 4.67289C0.420583 5.56903 0.283848 6.52649 0.353272 7.48018C0.506152 9.1851 1.29697 10.7695 2.56759 11.9165C3.83821 13.0635 5.49498 13.6886 7.2066 13.6668H9.6666C9.84342 13.6668 10.013 13.5966 10.138 13.4716C10.263 13.3466 10.3333 13.177 10.3333 13.0002C10.3333 12.8234 10.263 12.6538 10.138 12.5288C10.013 12.4038 9.84342 12.3335 9.6666 12.3335H7.21994C6.00461 12.3505 4.81769 11.9657 3.8436 11.2387C2.86951 10.5118 2.16279 9.48344 1.83327 8.31352C1.61374 7.41972 1.62843 6.48442 1.87593 5.59797C2.12343 4.71151 2.59538 3.90387 3.24617 3.25308C3.89696 2.60229 4.7046 2.13035 5.59105 1.88284C6.47751 1.63534 7.41281 1.62065 8.3066 1.84018C9.47799 2.16585 10.5085 2.87043 11.237 3.84381C11.9655 4.81718 12.351 6.0045 12.3333 7.22018V7.95352C12.3263 8.22101 12.2201 8.47635 12.0353 8.66983C11.8504 8.8633 11.6002 8.98106 11.3333 9.00018C11.0664 8.98106 10.8161 8.8633 10.6313 8.66983C10.4464 8.47635 10.3402 8.22101 10.3333 7.95352V7.12018C10.3456 6.3058 10.0661 5.51389 9.54513 4.88779C9.0242 4.26169 8.29633 3.84277 7.49327 3.70685C6.92946 3.62174 6.35325 3.68254 5.81962 3.88344C5.28599 4.08433 4.81274 4.41863 4.44504 4.85443C4.07734 5.29023 3.82745 5.81298 3.71923 6.37281C3.611 6.93264 3.64804 7.51087 3.82682 8.05231C4.0056 8.59376 4.32015 9.08035 4.74045 9.46567C5.16075 9.85098 5.67279 10.1222 6.22769 10.2533C6.7826 10.3845 7.36186 10.3713 7.9102 10.2149C8.45854 10.0585 8.95766 9.76428 9.35994 9.36018C9.68459 9.78864 10.1403 10.0993 10.6578 10.2449C11.1753 10.3905 11.7261 10.3631 12.2266 10.1668C12.661 9.98116 13.0301 9.67006 13.2866 9.27338C13.5431 8.87671 13.6754 8.4125 13.6666 7.94018V7.21352C13.6898 5.50084 13.0653 3.84258 11.9182 2.57061C10.7711 1.29863 9.1859 0.50678 7.47994 0.353516ZM6.99994 9.00018C6.60438 9.00018 6.2177 8.88288 5.8888 8.66312C5.5599 8.44336 5.30355 8.131 5.15218 7.76555C5.0008 7.4001 4.9612 6.99796 5.03837 6.61C5.11554 6.22204 5.30602 5.86567 5.58572 5.58597C5.86543 5.30626 6.2218 5.11578 6.60976 5.03861C6.99772 4.96144 7.39985 5.00105 7.7653 5.15242C8.13076 5.3038 8.44311 5.56014 8.66288 5.88904C8.88264 6.21794 8.99994 6.60462 8.99994 7.00018C8.99994 7.53062 8.78922 8.03932 8.41415 8.4144C8.03908 8.78947 7.53037 9.00018 6.99994 9.00018Z" fill="#6F7692"/>
</svg>
