<svg width="18" height="19" viewBox="0 0 18 19" fill="none" xmlns="http://www.w3.org/2000/svg">
<path d="M16.2299 12.8488L13.6899 12.5588C13.3912 12.5238 13.0885 12.5569 12.8045 12.6556C12.5205 12.7544 12.2625 12.9161 12.0499 13.1288L10.2099 14.9688C7.37109 13.525 5.06368 11.2176 3.6199 8.37883L5.4699 6.52883C5.68259 6.31625 5.84436 6.05827 5.94308 5.77423C6.0418 5.49019 6.0749 5.18749 6.0399 4.88883L5.7499 2.36883C5.69342 1.88092 5.45937 1.43085 5.09236 1.10442C4.72536 0.777989 4.25107 0.598023 3.7599 0.598826H2.0299C1.76066 0.596544 1.49376 0.649062 1.24546 0.753184C0.997154 0.857306 0.772628 1.01086 0.58554 1.20449C0.398452 1.39813 0.252714 1.6278 0.157192 1.87954C0.0616695 2.13128 0.0183607 2.39982 0.0299001 2.66883C0.29003 6.79786 2.04766 10.6901 4.97312 13.6156C7.89858 16.5411 11.7909 18.2987 15.9199 18.5588C16.1889 18.5704 16.4574 18.5271 16.7092 18.4315C16.9609 18.336 17.1906 18.1903 17.3842 18.0032C17.5779 17.8161 17.7314 17.5916 17.8355 17.3433C17.9397 17.095 17.9922 16.8281 17.9899 16.5588V14.8288C17.9925 14.3398 17.8142 13.8671 17.4893 13.5016C17.1644 13.1361 16.7159 12.9036 16.2299 12.8488Z" fill="url(#paint0_linear_94_364)"/>
<defs>
<linearGradient id="paint0_linear_94_364" x1="9.00902" y1="0.598755" x2="9.00902" y2="18.5606" gradientUnits="userSpaceOnUse">
<stop stop-color="#003147"/>
<stop offset="1" stop-color="#001F2E"/>
</linearGradient>
</defs>
</svg>
