<svg width="10" height="14" viewBox="0 0 10 14" fill="none" xmlns="http://www.w3.org/2000/svg">
<path d="M4.99992 0.332031C3.76224 0.332031 2.57526 0.823696 1.70009 1.69887C0.824917 2.57404 0.333252 3.76102 0.333252 4.9987C0.333252 7.7787 3.27992 11.612 4.49325 13.072C4.55537 13.1471 4.63329 13.2075 4.72144 13.249C4.8096 13.2905 4.90583 13.312 5.00325 13.312C5.10068 13.312 5.1969 13.2905 5.28506 13.249C5.37322 13.2075 5.45114 13.1471 5.51325 13.072C6.71992 11.612 9.66659 7.7787 9.66659 4.9987C9.66659 3.76102 9.17492 2.57404 8.29975 1.69887C7.42458 0.823696 6.2376 0.332031 4.99992 0.332031ZM4.99992 6.66536C4.67028 6.66536 4.34805 6.56762 4.07397 6.38448C3.79989 6.20135 3.58627 5.94105 3.46012 5.6365C3.33397 5.33196 3.30097 4.99685 3.36528 4.67355C3.42959 4.35025 3.58832 4.05327 3.82141 3.82019C4.05449 3.5871 4.35147 3.42836 4.67477 3.36406C4.99807 3.29975 5.33318 3.33275 5.63772 3.4589C5.94227 3.58504 6.20257 3.79867 6.3857 4.07275C6.56884 4.34683 6.66659 4.66906 6.66659 4.9987C6.66659 5.21757 6.62348 5.43429 6.53972 5.6365C6.45596 5.83871 6.33319 6.02245 6.17843 6.17721C6.02367 6.33197 5.83993 6.45474 5.63772 6.5385C5.43552 6.62226 5.21879 6.66536 4.99992 6.66536Z" fill="#6F7692"/>
</svg>
