<svg width="14" height="18" viewBox="0 0 14 18" fill="none" xmlns="http://www.w3.org/2000/svg">
<path d="M1 16C1.00158 16.5299 1.2128 17.0377 1.58753 17.4125C1.96227 17.7872 2.47005 17.9984 3 18H11C11.5299 17.9984 12.0377 17.7872 12.4125 17.4125C12.7872 17.0377 12.9984 16.5299 13 16V6C12.9984 5.47005 12.7872 4.96227 12.4125 4.58753C12.0377 4.2128 11.5299 4.00158 11 4H3C2.47005 4.00158 1.96227 4.2128 1.58753 4.58753C1.2128 4.96227 1.00158 5.47005 1 6V16ZM4 6H10C10.2652 6 10.5196 6.10536 10.7071 6.29289C10.8946 6.48043 11 6.73478 11 7V15C11 15.2652 10.8946 15.5196 10.7071 15.7071C10.5196 15.8946 10.2652 16 10 16H4C3.73478 16 3.48043 15.8946 3.29289 15.7071C3.10536 15.5196 3 15.2652 3 15V7C3 6.73478 3.10536 6.48043 3.29289 6.29289C3.48043 6.10536 3.73478 6 4 6ZM10.5 1L9.79 0.29C9.6032 0.106068 9.35215 0.00206033 9.09 0H4.91C4.64785 0.00206033 4.3968 0.106068 4.21 0.29L3.5 1H1C0.734784 1 0.48043 1.10536 0.292893 1.29289C0.105357 1.48043 0 1.73478 0 2C0 2.26522 0.105357 2.51957 0.292893 2.70711C0.48043 2.89464 0.734784 3 1 3H13C13.2652 3 13.5196 2.89464 13.7071 2.70711C13.8946 2.51957 14 2.26522 14 2C14 1.73478 13.8946 1.48043 13.7071 1.29289C13.5196 1.10536 13.2652 1 13 1H10.5Z" fill="#2F3240"/>
</svg>
