<svg width="48" height="48" viewBox="0 0 48 48" fill="none" xmlns="http://www.w3.org/2000/svg">
<path d="M38.9999 20.7422V39C38.9999 40.1935 38.5258 41.3381 37.6819 42.182C36.8379 43.0259 35.6934 43.5 34.4999 43.5H13.4999C12.3064 43.5 11.1618 43.0259 10.3179 42.182C9.47398 41.3381 8.99988 40.1935 8.99988 39V9C8.99988 7.80653 9.47398 6.66193 10.3179 5.81802C11.1618 4.97411 12.3064 4.5 13.4999 4.5H22.7577C23.5531 4.50012 24.3158 4.81609 24.8783 5.37844L38.1214 18.6216C38.6838 19.184 38.9998 19.9468 38.9999 20.7422Z" stroke="#959DB3" stroke-width="2" stroke-linejoin="round"/>
<path d="M23.9999 5.25V16.5C23.9999 17.2956 24.3159 18.0587 24.8786 18.6213C25.4412 19.1839 26.2042 19.5 26.9999 19.5H38.2499" stroke="#959DB3" stroke-width="2" stroke-linecap="round" stroke-linejoin="round"/>
<path d="M16.4999 27H31.4999" stroke="#959DB3" stroke-width="2" stroke-linecap="round" stroke-linejoin="round"/>
<path d="M16.4999 34.5H31.4999" stroke="#959DB3" stroke-width="2" stroke-linecap="round" stroke-linejoin="round"/>
</svg>
