
<svg
xmlns="http://www.w3.org/2000/svg"
id="prefix__view_list-24px"
width="24"
height="24"
viewBox="0 0 24 24"
>
<path
  id="prefix__Path_2349"
  fill="none"
  d="M0 0h24v24H0z"
  data-name="Path 2349"
  opacity="0.87"
/>
<path
  id="prefix__Path_2350"
  fill="#009DCC"
  d="M4 14h2a1 1 0 0 0 1-1v-2a1 1 0 0 0-1-1H4a1 1 0 0 0-1 1v2a1 1 0 0 0 1 1zm0 5h2a1 1 0 0 0 1-1v-2a1 1 0 0 0-1-1H4a1 1 0 0 0-1 1v2a1 1 0 0 0 1 1zM4 9h2a1 1 0 0 0 1-1V6a1 1 0 0 0-1-1H4a1 1 0 0 0-1 1v2a1 1 0 0 0 1 1zm5 5h10a1 1 0 0 0 1-1v-2a1 1 0 0 0-1-1H9a1 1 0 0 0-1 1v2a1 1 0 0 0 1 1zm0 5h10a1 1 0 0 0 1-1v-2a1 1 0 0 0-1-1H9a1 1 0 0 0-1 1v2a1 1 0 0 0 1 1zM8 6v2a1 1 0 0 0 1 1h10a1 1 0 0 0 1-1V6a1 1 0 0 0-1-1H9a1 1 0 0 0-1 1z"
  data-name="Path 2350"
/>
</svg>