<svg xmlns="http://www.w3.org/2000/svg" id="prefix__visibility_off-24px" width="24" height="24" viewBox="0 0 24 24">
    <path id="prefix__Path_2302" fill="none" d="M0 0h24v24H0zm0 0h24v24H0zm0 0h24v24H0zm0 0h24v24H0z" data-name="Path 2302"/>
    <path id="prefix__Path_2303" fill="#003147" d="M12 6.5a4.938 4.938 0 0 1 4.76 6.46l3.06 3.06A11.8 11.8 0 0 0 23 11.49 11.838 11.838 0 0 0 8.36 4.57l2.17 2.17A5.14 5.14 0 0 1 12 6.5zM2.71 3.16a1 1 0 0 0 0 1.41l1.97 1.97A11.892 11.892 0 0 0 1 11.5a11.8 11.8 0 0 0 15.31 6.68l2.72 2.72a1 1 0 1 0 1.41-1.41L4.13 3.16a1.008 1.008 0 0 0-1.42 0zM12 16.5a5 5 0 0 1-5-5 4.911 4.911 0 0 1 .49-2.14l1.57 1.57a3.434 3.434 0 0 0-.06.57 3 3 0 0 0 3 3 2.694 2.694 0 0 0 .57-.07L14.14 16a4.813 4.813 0 0 1-2.14.5zm2.97-5.33a2.969 2.969 0 0 0-2.64-2.64z" data-name="Path 2303"/>
</svg>
