<svg width="36" height="30" viewBox="0 0 36 30" fill="none" xmlns="http://www.w3.org/2000/svg">
<path d="M2.54183 30C1.90294 30 1.43072 29.7222 1.12516 29.1667C0.819607 28.6111 0.819607 28.0556 1.12516 27.5L16.5418 0.833333C16.8474 0.277778 17.3335 0 18.0002 0C18.6668 0 19.1529 0.277778 19.4585 0.833333L34.8752 27.5C35.1807 28.0556 35.1807 28.6111 34.8752 29.1667C34.5696 29.7222 34.0974 30 33.4585 30H2.54183ZM18.0002 11.6667C17.5279 11.6667 17.1324 11.8261 16.8135 12.145C16.4935 12.465 16.3335 12.8611 16.3335 13.3333V18.3333C16.3335 18.8056 16.4935 19.2011 16.8135 19.52C17.1324 19.84 17.5279 20 18.0002 20C18.4724 20 18.8685 19.84 19.1885 19.52C19.5074 19.2011 19.6668 18.8056 19.6668 18.3333V13.3333C19.6668 12.8611 19.5074 12.465 19.1885 12.145C18.8685 11.8261 18.4724 11.6667 18.0002 11.6667ZM18.0002 25C18.4724 25 18.8685 24.84 19.1885 24.52C19.5074 24.2011 19.6668 23.8056 19.6668 23.3333C19.6668 22.8611 19.5074 22.4656 19.1885 22.1467C18.8685 21.8267 18.4724 21.6667 18.0002 21.6667C17.5279 21.6667 17.1324 21.8267 16.8135 22.1467C16.4935 22.4656 16.3335 22.8611 16.3335 23.3333C16.3335 23.8056 16.4935 24.2011 16.8135 24.52C17.1324 24.84 17.5279 25 18.0002 25Z" fill="#009DCC"/>
</svg>
