<svg width="12" height="12" viewBox="0 0 12 12" fill="none" xmlns="http://www.w3.org/2000/svg">
<path d="M9.53553 10.9508L6 7.41527L2.46447 10.9508C2.27693 11.1383 2.02258 11.2437 1.75736 11.2437C1.49214 11.2437 1.23779 11.1383 1.05025 10.9508C0.862716 10.7633 0.75736 10.5089 0.75736 10.2437C0.75736 9.97848 0.862716 9.72413 1.05025 9.53659L4.58579 6.00106L1.05025 2.46552C0.862716 2.27799 0.75736 2.02363 0.75736 1.75842C0.757359 1.4932 0.862716 1.23885 1.05025 1.05131C1.23779 0.863774 1.49214 0.758417 1.75736 0.758417C2.02258 0.758417 2.27693 0.863774 2.46447 1.05131L6 4.58684L9.53553 1.05131C9.72307 0.863774 9.97742 0.758417 10.2426 0.758417C10.5079 0.758417 10.7622 0.863774 10.9497 1.05131C11.1373 1.23885 11.2426 1.4932 11.2426 1.75842C11.2426 2.02363 11.1373 2.27799 10.9497 2.46552L7.41421 6.00106L10.9497 9.53659C11.1373 9.72413 11.2426 9.97848 11.2426 10.2437C11.2426 10.5089 11.1373 10.7633 10.9497 10.9508C10.7622 11.1383 10.5079 11.2437 10.2426 11.2437C9.97742 11.2437 9.72307 11.1383 9.53553 10.9508Z" fill="white"/>
</svg>
