<svg xmlns="http://www.w3.org/2000/svg" width="72" height="250" viewBox="0 0 72 250">
    <g>
        <path fill="#459AD4" d="M8 0h64v250H8a8 8 0 0 1-8-8V8a8 8 0 0 1 8-8z" transform="translate(-657 -383) translate(657 383)"/>
        <path fill="#fff" stroke="rgba(0,0,0,0)" d="M25.408 32V10.88H39.3v3.9h-9.572v5.28h7.84v3.9h-7.84V32zm30.624-6.464h-11.1a3.894 3.894 0 0 0 1.552 2.32 4.933 4.933 0 0 0 2.9.816 7.123 7.123 0 0 0 4.416-1.6l1.792 2.944a9.67 9.67 0 0 1-6.336 2.368 8.373 8.373 0 0 1-6.2-2.384 7.685 7.685 0 0 1-2.48-5.9 8.2 8.2 0 0 1 8.288-8.288 7.229 7.229 0 0 1 5.36 2.112 7.153 7.153 0 0 1 2.1 5.248 10.259 10.259 0 0 1-.292 2.364zm-11.1-3.04h7.2a3.072 3.072 0 0 0-1.008-2.32A3.475 3.475 0 0 0 48.7 19.3a3.606 3.606 0 0 0-2.4.864 4.247 4.247 0 0 0-1.372 2.336zm29.312 3.04h-11.1a3.894 3.894 0 0 0 1.552 2.32 4.933 4.933 0 0 0 2.9.816 7.123 7.123 0 0 0 4.404-1.6l1.792 2.944a9.67 9.67 0 0 1-6.336 2.368A8.373 8.373 0 0 1 61.264 30a7.685 7.685 0 0 1-2.48-5.9 8.2 8.2 0 0 1 8.288-8.288 7.229 7.229 0 0 1 5.36 2.112 7.153 7.153 0 0 1 2.1 5.248 10.259 10.259 0 0 1-.292 2.364zm-11.1-3.04h7.2a3.072 3.072 0 0 0-1.008-2.32 3.475 3.475 0 0 0-2.416-.88 3.606 3.606 0 0 0-2.4.864 4.247 4.247 0 0 0-1.384 2.34zM89.408 8h4.32v24H89.76v-1.952a5.777 5.777 0 0 1-5.088 2.336 7.175 7.175 0 0 1-5.5-2.352 8.4 8.4 0 0 1-2.18-5.932 8.4 8.4 0 0 1 2.176-5.936 7.175 7.175 0 0 1 5.5-2.352 6.1 6.1 0 0 1 4.74 1.888zm-1.072 19.3a4.36 4.36 0 0 0 1.136-3.2 4.381 4.381 0 0 0-1.152-3.22 3.842 3.842 0 0 0-2.848-1.168 3.891 3.891 0 0 0-2.928 1.216 4.34 4.34 0 0 0-1.168 3.136 4.418 4.418 0 0 0 1.152 3.168 4.154 4.154 0 0 0 5.808.064zm24.24-9.136a8.4 8.4 0 0 1 2.176 5.936 8.4 8.4 0 0 1-2.176 5.936 7.175 7.175 0 0 1-5.5 2.352 5.93 5.93 0 0 1-5.088-2.336V32h-3.972V8h4.32v9.7a6.1 6.1 0 0 1 4.736-1.888 7.175 7.175 0 0 1 5.504 2.348zm-2.208 5.9a4.34 4.34 0 0 0-1.168-3.136 3.891 3.891 0 0 0-2.928-1.216 3.827 3.827 0 0 0-2.864 1.168 4.417 4.417 0 0 0-1.136 3.216 4.36 4.36 0 0 0 1.136 3.2 4.154 4.154 0 0 0 5.808-.064 4.418 4.418 0 0 0 1.152-3.168zm21.056-1.472V32h-3.968v-1.536a6.419 6.419 0 0 1-4.832 1.92 5.807 5.807 0 0 1-3.984-1.312 4.349 4.349 0 0 1-1.488-3.424 4.014 4.014 0 0 1 1.616-3.376 7.034 7.034 0 0 1 4.368-1.232h3.964v-.7a2.724 2.724 0 0 0-.752-2.064 3.05 3.05 0 0 0-2.192-.72 4.484 4.484 0 0 0-2.144.512 8.346 8.346 0 0 0-2.048 1.664l-2.24-2.656a8.667 8.667 0 0 1 6.912-3.264 6.806 6.806 0 0 1 4.96 1.776 6.669 6.669 0 0 1 1.828 5.004zM127.1 26.08v-.192h-3.392q-2.208 0-2.208 1.6a1.491 1.491 0 0 0 .624 1.264 2.7 2.7 0 0 0 1.648.464 3.359 3.359 0 0 0 2.384-.88 2.947 2.947 0 0 0 .944-2.256zm7.584-2.016a7.864 7.864 0 0 1 2.464-5.856 8.3 8.3 0 0 1 6.016-2.4 7.36 7.36 0 0 1 6.88 3.9l-3.008 2.336a4.6 4.6 0 0 0-3.808-2.3 3.941 3.941 0 0 0-2.992 1.232 4.312 4.312 0 0 0-1.168 3.088 4.354 4.354 0 0 0 1.168 3.12 3.941 3.941 0 0 0 2.992 1.232 4.608 4.608 0 0 0 3.808-2.272l3.008 2.3a7.694 7.694 0 0 1-2.832 2.9 7.86 7.86 0 0 1-4.048 1.04 8.07 8.07 0 0 1-6.016-2.416 7.77 7.77 0 0 1-2.46-5.904zM168.864 32h-4.928l-6.368-8.768V32h-4.32V8h4.32v14.912l5.7-6.752h5.12l-5.952 7.008z" transform="translate(-657 -383) rotate(-90 638.5 -34.5)"/>
    </g>
</svg>
